<svg xmlns="http://www.w3.org/2000/svg" width="1193" height="500" fill="none" viewBox="0 0 1193 500">
  <path stroke="#AAA" stroke-opacity=".36" stroke-width="2" d="M1387.31 100.64c-109.24-.23-215.66-70-431.33-70-215.66 0-213.82 70.24-431.32 70C307.15 100.4 210.41-78.65 93.33-82.38"/>
  <path stroke="#AAA" stroke-opacity=".36" stroke-width="2" d="M1475.2 195.26c-186.16 1.46-442.36 186.91-721.39 184.8-279.02-2.11-223.46-409.09-360.69-458.41"/>
  <path stroke="#AAA" stroke-opacity=".36" stroke-width="2" d="M1197.59 481.87c-101.28-.26-199.5-70-399.01-70-199.5 0-169.1 86.23-399.01 70C169.66 465.64 155.46 10.42.56-49.75m1265.82 306.41c-162.87-6.57-356.53-269.97-591.45-274.4-234.92-4.43-221.25-35.76-295.72-35.83"/>
  <path stroke="#AAA" stroke-opacity=".36" stroke-width="2" d="M1390.44 498.01c-97.01-1.62-141.02-94.79-368.03-123.2C795.4 346.4 788.22-5.67 654.38-45.74"/>
</svg>
