<svg xmlns="http://www.w3.org/2000/svg" width="1440" height="1026" fill="none" viewBox="0 0 1440 1026">
  <path fill="#fff" d="M0 0h1440v1026H0z"/>
  <circle cx="188.5" cy="959.5" r="66.5" fill="url(#a)"/>
  <circle cx="220" cy="348" r="52" fill="url(#b)" fill-opacity=".46"/>
  <circle cx="847.5" cy="799.5" r="66.5" fill="url(#c)" fill-opacity=".46"/>
  <circle cx="479" cy="649" r="114" fill="url(#d)"/>
  <path fill="url(#e)" fill-opacity=".94" d="M394-6c79.164 288.386 119.021 355.476 184.318 401.537 65.297 46.062 175.836 62.885 313.721 46.062C1029.92 424.776 1029.6 689.264 1012.2 823.61c1.99 59.079 47.08 163.619 211.5 109.146 164.42-54.473 328.04-22.697 389.3 0L1584.18-6H394Z"/>
  <path fill="url(#f)" fill-opacity=".94" d="M494-54c72.8 288 109.452 355 169.5 401s161.7 62.8 288.5 46c126.8-16.8 126.5 247.333 110.5 381.5 1.83 59 43.3 163.4 194.5 109 151.2-54.4 301.67-22.667 358 0L1588.5-54H494Z"/>
  <defs>
    <linearGradient id="a" x1="132.662" x2="243.496" y1="931.441" y2="994.854" gradientUnits="userSpaceOnUse">
      <stop stop-color="#A107FF" stop-opacity=".84"/>
      <stop offset="1" stop-color="#CC79FF"/>
    </linearGradient>
    <linearGradient id="b" x1="168" x2="272" y1="370" y2="317.5" gradientUnits="userSpaceOnUse">
      <stop stop-color="#FFC727"/>
      <stop offset="1" stop-color="#AF2EFF"/>
    </linearGradient>
    <linearGradient id="c" x1="793.139" x2="914" y1="759.917" y2="838.028" gradientUnits="userSpaceOnUse">
      <stop stop-color="#AF2EFF"/>
      <stop offset="1" stop-color="#FFC727"/>
    </linearGradient>
    <linearGradient id="d" x1="420.079" x2="546.888" y1="554.213" y2="741.225" gradientUnits="userSpaceOnUse">
      <stop stop-color="#FFC727" stop-opacity=".46"/>
      <stop offset="1" stop-color="#FFD250" stop-opacity=".92"/>
    </linearGradient>
    <linearGradient id="e" x1="1003.5" x2="1433" y1="-6" y2="904" gradientUnits="userSpaceOnUse">
      <stop stop-color="#E1B1FF"/>
      <stop offset="1" stop-color="#E1B1FF" stop-opacity="0"/>
    </linearGradient>
    <linearGradient id="f" x1="493.5" x2="1615.5" y1="-54.5" y2="872" gradientUnits="userSpaceOnUse">
      <stop stop-color="#A107FF" stop-opacity=".84"/>
      <stop offset="1" stop-color="#B63FFF" stop-opacity=".99"/>
    </linearGradient>
  </defs>
</svg>
