<svg xmlns="http://www.w3.org/2000/svg" width="365" height="365" fill="none" viewBox="0 0 365 365">
  <path fill="#F5F5F5" d="M183.318 344.757c94.079 0 170.345-46.972 170.345-104.916 0-57.943-76.266-104.915-170.345-104.915-94.08 0-170.346 46.972-170.346 104.915 0 57.944 76.266 104.916 170.346 104.916Z"/>
  <path fill="#E0E0E0" d="m252.003 232.658-93.016-53.706a5.113 5.113 0 0 0-4.629 0L75.811 224.3c-1.278.73-1.278 1.934 0 2.672l93.016 53.706a5.113 5.113 0 0 0 4.628 0l6.402-3.694 42.698-24.66 29.448-17.001c1.307-.738 1.307-1.927 0-2.665Zm59.313-44.756-53.027-30.748a3.49 3.49 0 0 0-3.132 0L201.94 187.88a.957.957 0 0 0 0 1.811l53.02 30.769a3.49 3.49 0 0 0 3.139 0l4.336-2.504 28.93-16.702 19.951-11.52a.958.958 0 0 0 .493-1.487.958.958 0 0 0-.493-.345Z"/>
  <path fill="#E0E0E0" d="M62.32 259.128c15.042 0 27.236-7.04 27.236-15.724 0-8.684-12.194-15.724-27.236-15.724s-27.236 7.04-27.236 15.724c0 8.684 12.194 15.724 27.236 15.724Zm169.148 42.625c28.948 0 52.414-13.547 52.414-30.259 0-16.711-23.466-30.258-52.414-30.258-28.947 0-52.414 13.547-52.414 30.258 0 16.712 23.467 30.259 52.414 30.259Zm71.446-109.741-8.439-4.876 8.439-2.439v7.315Z"/>
  <path fill="#000" d="m302.914 192.012-8.439-4.876 8.439-2.439v7.315Z" opacity=".1"/>
  <path fill="#E0E0E0" d="M260.617 209.123v7.775l-48.691-28.178v-7.768l48.691 28.171Z"/>
  <path fill="#000" d="M260.617 209.123v7.775l-48.691-28.178v-7.768l48.691 28.171Z" opacity=".1"/>
  <path fill="#E0E0E0" d="m207.707 120.005 48.691 28.17v63.386l-48.691-28.17v-63.386Z"/>
  <path fill="#EBEBEB" d="m256.398 148.175 54.962-31.733v63.379l-54.962 31.74v-63.386Z"/>
  <path fill="#F5F5F5" d="m311.36 116.442-48.684-28.178-54.969 31.741 48.691 28.17 54.962-31.733Z"/>
  <path fill="#FAFAFA" d="m260.617 150.614 46.523-26.864v14.629l-46.523 26.864v-14.629Z"/>
  <path fill="#000" d="m260.617 170.119 46.523-26.864v34.128l-46.523 26.864v-34.128Z" opacity=".1"/>
  <path fill="#EBEBEB" d="m260.617 216.898 4.227-2.439v-7.774l-4.227 2.438v7.775Zm42.297-24.886 4.226-2.438v-7.315l-4.226 2.438v7.315Z"/>
  <path fill="#E0E0E0" d="M275.035 145.372c0 .672 2.015.051 4.504-1.38l7.884-4.555c2.489-1.46 4.504-3.146 4.504-3.818V134.4l-16.892 9.753v1.219Z"/>
  <path fill="#000" d="m307.14 177.383-29.36-17.177-17.163 9.913v34.128l46.523-26.864Z" opacity=".1"/>
  <path fill="#E0E0E0" d="M259.405 121.633c8.205 0 14.856-3.841 14.856-8.578 0-4.737-6.651-8.577-14.856-8.577-8.204 0-14.855 3.84-14.855 8.577s6.651 8.578 14.855 8.578Z"/>
  <path fill="#37474F" d="M272.677 109.106a8.37 8.37 0 0 0-3.563-3.57c-5.365-3.095-14.059-3.095-19.425 0a8.308 8.308 0 0 0-3.555 3.57h-.467v2.037c0 2.029 1.343 4.058 4.022 5.606 5.366 3.095 14.06 3.095 19.425 0 2.68-1.548 4.023-3.577 4.023-5.606v-2.037h-.46Z"/>
  <path fill="#455A64" d="M249.66 114.712c-5.358-3.095-5.358-8.117 0-11.213 5.358-3.095 14.06-3.102 19.425 0 5.366 3.103 5.366 8.118 0 11.213-5.365 3.095-14.03 3.095-19.425 0Z"/>
  <path fill="#37474F" d="m262.391 107.879-2.577-.905c11.016-31.39-14.717-41.45-15.819-41.865l.949-2.555c.336.11 29.361 11.351 17.447 45.325Z"/>
  <path fill="#37474F" d="M264.698 109.106a5.282 5.282 0 0 0-1.48-3.874 5.298 5.298 0 0 0-9.112 3.874 2.64 2.64 0 0 0 1.555 2.19 8.297 8.297 0 0 0 7.489 0 2.627 2.627 0 0 0 1.076-.882 2.63 2.63 0 0 0 .472-1.308Z"/>
  <path fill="#263238" d="M262.931 108.77c-.372 2.19-4.898 3.292-6.723 2.752a8.36 8.36 0 0 0 6.942-.27 2.626 2.626 0 0 0 1.548-2.19 5.298 5.298 0 0 0-5.292-5.3c1.284.044 3.905 2.818 3.525 5.008Z"/>
  <path fill="#000" d="m244.623 63.27-.92-1.06 3.219-2.803a.732.732 0 0 1 .986.066.727.727 0 0 1-.066.993l-3.219 2.803Z"/>
  <path fill="#37474F" d="M246.631 65.05c.773-.97.102-2.752-.789-3.774-.891-1.022-2.555-1.927-3.65-1.3-1.095.629-3.168 2.19-3.168 2.19l5.022 5.724s1.811-1.869 2.585-2.84Z"/>
  <path fill="#263238" d="M244.185 60.05c1.124 1.306 1.599 3.774-1.723 6.03l1.584 1.81s1.811-1.869 2.585-2.84c.773-.97.102-2.752-.789-3.774a5.01 5.01 0 0 0-1.657-1.226Z"/>
  <path fill="#455A64" d="M236.177 87.907c4.292-3.745 11.278-17.915 6.271-23.674-5.008-5.76-20.017-.781-24.309 2.927"/>
  <path fill="#37474F" d="M217.211 73.329c-1.554-5.76 1.643-8.534 7.133-6.205 5.489 2.328 11.198 8.884 12.753 14.643 1.555 5.76-1.635 8.541-7.132 6.213-5.497-2.33-11.199-8.892-12.754-14.651Z"/>
  <path fill="#BA68C8" d="M235.111 77.964c.102-.08.19-.175.285-.263a27.324 27.324 0 0 0-7.344-8.402l-.292.226a5.6 5.6 0 0 0 7.351 8.439Z"/>
  <path fill="#fff" d="M235.111 77.964c.102-.08.19-.175.285-.263a27.324 27.324 0 0 0-7.344-8.402l-.292.226a5.6 5.6 0 0 0 7.351 8.439Z" opacity=".7"/>
  <path fill="#BA68C8" d="M103.813 84.563v-8.716l7.359-.642a.59.59 0 0 1 .306.058l7.344 4.197a.552.552 0 0 1 .253.39.542.542 0 0 1-.136.443l-7.797 8.453-7.329-4.183Z"/>
  <path fill="#BA68C8" d="m111.142 88.746 7.797-8.446a.544.544 0 0 0 .088-.606.54.54 0 0 0-.533-.3l-7.352.643v8.71Z"/>
  <path fill="#BA68C8" d="m103.821 75.84 7.3 4.197 7.358-.65a.676.676 0 0 1 .248 0c-.584-.343-7-4.014-7.3-4.153a.48.48 0 0 0-.306-.066l-7.3.672Z"/>
  <path fill="#fff" d="m103.821 75.84 7.3 4.197 7.358-.65a.676.676 0 0 1 .248 0c-.584-.343-7-4.014-7.3-4.153a.48.48 0 0 0-.306-.066l-7.3.672Z" opacity=".5"/>
  <path fill="#BA68C8" d="M111.128 70.197a5.838 5.838 0 0 0-2.657-4.592l-.672-.453a5.84 5.84 0 0 0-5.307 0l-23.01 13.294a5.84 5.84 0 0 0-2.657 4.591v26.587a5.838 5.838 0 0 0 2.657 4.599l.672.453a5.89 5.89 0 0 0 5.3 0l6.796-3.928 8.833-5.11 7.388-4.263a5.843 5.843 0 0 0 2.657-4.592V70.197Z"/>
  <path fill="#000" d="M76.825 109.624a5.838 5.838 0 0 0 2.657 4.599l.672.453a5.955 5.955 0 0 0 4.847.211c-1.248.468-2.19-.233-2.19-1.744V86.549c.034-.923.3-1.822.774-2.614l-5.971-3.51a5.4 5.4 0 0 0-.782 2.612l-.007 26.587Z" opacity=".2"/>
  <path fill="#fff" d="M111.04 69.445c-.314-1.124-1.336-1.46-2.562-.781L85.454 81.957a5.285 5.285 0 0 0-1.869 1.993l-5.971-3.511a5.263 5.263 0 0 1 1.868-1.979l23.01-13.307a5.905 5.905 0 0 1 5.307 0l.679.46a5.83 5.83 0 0 1 2.562 3.832Z" opacity=".5"/>
  <path fill="#FAFAFA" d="m106.208 88.834-1.935-.095c-.139 0-.241-.197-.233-.424a11.698 11.698 0 0 0-.073-1.62c-.03-.228.01-.46.116-.664l1.92-2.723a.65.65 0 0 0 0-.599l-.956-2.059c-.088-.19-.248-.248-.358-.131l-2.139 2.248a.311.311 0 0 1-.423 0 3.707 3.707 0 0 0-.934-.562.436.436 0 0 1-.19-.474l.474-3.059c.037-.219-.051-.38-.182-.365l-2.263.27c-.139 0-.292.19-.35.387l-.935 3.19a.89.89 0 0 1-.336.475 8.148 8.148 0 0 0-1.46.949c-.117.095-.3.043-.409-.124l-1.05-1.614c-.103-.16-.278-.19-.38-.058l-2.234 2.745a.731.731 0 0 0-.066.613l.664 2.088a.971.971 0 0 1-.043.664c-.357.645-.676 1.31-.957 1.993a.73.73 0 0 1-.365.394l-2.146.591a.629.629 0 0 0-.328.438l-.774 3.468c-.051.204 0 .38.16.387l1.942.095c.132 0 .234.197.227.423-.014.541.01 1.083.073 1.62.03.229-.011.46-.117.665l-1.92 2.723a.686.686 0 0 0 0 .599l.949 2.058c.095.19.255.248.365.132l2.131-2.249a.313.313 0 0 1 .431 0c.28.236.595.425.934.562a.431.431 0 0 1 .183.475l-.475 3.058c0 .219.052.38.19.365l2.263-.27c.132 0 .285-.189.343-.387l.942-3.19a.855.855 0 0 1 .336-.474 8.404 8.404 0 0 0 1.46-.949.281.281 0 0 1 .336.023c.03.025.055.057.073.094l1.05 1.613c.11.168.278.197.38.066l2.242-2.745a.724.724 0 0 0 .065-.613l-.664-2.088a.928.928 0 0 1 0-.665c.357-.645.676-1.31.956-1.992a.728.728 0 0 1 .373-.395l2.146-.59a.606.606 0 0 0 .321-.439l.781-3.467c.08-.205.007-.38-.131-.387Zm-4.424 2.62c-.883 3.928-3.65 7.359-6.242 7.665-2.591.307-3.934-2.635-3.051-6.57.883-3.934 3.65-7.365 6.249-7.665 2.599-.299 3.927 2.636 3.044 6.57Z"/>
  <path fill="#37474F" d="M234.381 193.027a10.14 10.14 0 0 1-4.927 10.446l-57.67 30.054-.168 3.329-2.628 1.518 3.387 1.942 63.722-36.887-1.716-10.402Z"/>
  <path fill="#455A64" d="M174.185 254.974c-.365-4.423 1.205-8.884 5.059-11.103l51.954-29.981a4.878 4.878 0 0 1 7.249 3.416l-3.467-20.673a9.905 9.905 0 0 1-4.826 10.22l-53.786 31.127a2.564 2.564 0 0 1-2.652.162 2.57 2.57 0 0 1-1.378-2.272l-.277-2.854 2.124 21.958Z"/>
  <path fill="#455A64" d="m175.317 113.062-14.717 8.505 62.78 39.763a16.743 16.743 0 0 1 7.555 11.373l9.155 59.24a1.012 1.012 0 0 0 .567.764 1.02 1.02 0 0 0 .951-.034c.343-.204.54-.577.423-2.022l-5.234-62.955c-.292-3.555-2.562-7.789-6.175-10.658l-55.305-43.976Z"/>
  <path fill="#000" d="m201.633 147.526 9.373 5.927-1.963-13.614-8.402-6.665.992 14.352Z" opacity=".2"/>
  <path fill="#263238" d="m107.113 191.26-.365.832a6.424 6.424 0 0 0 2.686 8.111l57.933 33.397-1.46-8.665 2.19 12.994-64.933-37.595 3.949-9.074Z"/>
  <path fill="#263238" d="m107.113 191.26-.234.526a4.918 4.918 0 0 0 1.262 5.626 4.92 4.92 0 0 0 5.739.564l2.475-1.423 3.292 1.898-13.505 7.796-4.278-2.854 5.249-12.133Z"/>
  <path fill="#BA68C8" d="m168.791 234.447-55.539-32.12a7.76 7.76 0 0 1-3.511-6.074v-3.277a7.76 7.76 0 0 1 3.511-6.074l55.539-32.069a7.772 7.772 0 0 1 7.022 0l55.539 32.069a7.747 7.747 0 0 1 3.511 6.074v3.321a7.746 7.746 0 0 1-3.511 6.074l-55.539 32.054a7.78 7.78 0 0 1-7.022.022Z"/>
  <path fill="#000" d="M169.82 234.885a5.399 5.399 0 0 1-1.029-.446l-55.539-32.12a7.742 7.742 0 0 1-3.504-6.073v-3.278a7.867 7.867 0 0 1 .839-3.103 7.868 7.868 0 0 1 2.008-2.511c-1.248 1.117-1.029 2.614.657 3.585l55.276 31.915 1.292 12.031Z" opacity=".3"/>
  <path fill="#000" d="M234.863 192.997v3.315a7.737 7.737 0 0 1-3.511 6.08l-55.539 32.055a7.826 7.826 0 0 1-5.993.43l-1.292-11.993.263.153a7.732 7.732 0 0 0 7.022 0l55.539-32.069c1.693-.971 1.912-2.475.657-3.584a7.853 7.853 0 0 1 2.854 5.613Z" opacity=".15"/>
  <path fill="#BA68C8" d="m188.552 166.258-55.546 32.068a7.344 7.344 0 0 1-4.11.811c-.212 0-.416-.037-.62-.066h-.125l-.365-.066h-.051a5.15 5.15 0 0 1-.547-.138 5.573 5.573 0 0 1-1.197-.504l-2.862-1.65a9.87 9.87 0 0 1-4.219-6.015l-8.446-47.151a4.849 4.849 0 0 1-.073-.876v-.343a6.414 6.414 0 0 1 .386-1.723 6.24 6.24 0 0 1 1.855-2.65l.241-.189c.124-.081.24-.161.372-.234l55.538-32.069a7.779 7.779 0 0 1 7.023 0l2.854 1.65a7.604 7.604 0 0 1 1.686 1.372c.103.103.198.212.285.314.378.431.72.893 1.022 1.38.074.102.14.209.197.321a3.3 3.3 0 0 1 .161.278c.051.094.146.277.212.416.07.135.134.274.189.416.051.117.095.233.139.35.025.052.047.106.066.161.036.102.065.211.095.314.043.132.08.266.109.401.029.096.051.193.066.292l8.453 47.158a6.181 6.181 0 0 1-2.788 5.972Z"/>
  <path fill="#BA68C8" d="m120.34 149.212 8.447 47.158c.394 2.19 2.284 3.081 4.219 1.964l55.546-32.069a6.194 6.194 0 0 0 2.796-6.015l-8.454-47.151c-.394-2.19-2.285-3.081-4.219-1.956l-55.546 32.061a6.172 6.172 0 0 0-2.789 6.008Z"/>
  <path fill="#000" d="m120.34 149.212 8.447 47.158c.394 2.19 2.284 3.081 4.219 1.964l55.546-32.069a6.194 6.194 0 0 0 2.796-6.015l-8.454-47.151c-.394-2.19-2.285-3.081-4.219-1.956l-55.546 32.061a6.172 6.172 0 0 0-2.789 6.008Z" opacity=".15"/>
  <path fill="#000" d="M131.575 198.896a8.394 8.394 0 0 1-2.679.241c-.212 0-.416-.037-.62-.066a5.26 5.26 0 0 1-.49-.088h-.051a5.15 5.15 0 0 1-.547-.138 5.454 5.454 0 0 1-1.197-.504l-2.862-1.65a9.87 9.87 0 0 1-4.219-6.015l-8.446-47.151a4.849 4.849 0 0 1-.073-.876v-.343a6.414 6.414 0 0 1 .386-1.723l9.907 5.629a5.569 5.569 0 0 0-.351 3.022l8.454 47.136c.292 1.643 1.416 2.555 2.781 2.446a.44.44 0 0 0 .007.08Z" opacity=".3"/>
  <path fill="#FFA8A7" d="M248.2 241.09s3.358 13.14 5.614 17.301a64.713 64.713 0 0 0 8.986 13.059c.847.942 2.767 2.694 3.46 3.461a1.493 1.493 0 0 1-.117 2.314c-1.664 1.657-8.855 2.19-12.935-.781-4.081-2.971-7.534-7.862-9.979-10.22a302.242 302.242 0 0 1-3.22-3.183 3.27 3.27 0 0 1-.868-3.088c.08-.314.168-.686.263-1.124.861-3.898-3.804-13.753-3.804-13.753 3.344-4.906 8.256-4.694 12.6-3.986Z"/>
  <path fill="#263238" d="M238.878 263.902a3.924 3.924 0 0 0 .234 1.957c.401.883 2.956 2.445 4.263 3.058a6.983 6.983 0 0 1 3.511 3.504 15.391 15.391 0 0 0 7.015 6.76 21.297 21.297 0 0 0 12.607 1.051c5.242-1.044 5.607-4.161 5.607-4.161s.219-2.92-1.095-3.358c-1.314-.438-32.142-8.811-32.142-8.811Z"/>
  <path fill="#455A64" d="M238.71 254.887c.033.47.016.942-.051 1.409-.139 1.46-.256 2.358-.314 4.015a8.402 8.402 0 0 0 .562 3.591c1.591 2.117 5.271 2.752 7.446 5.643s4.774 7.366 11.68 8.6c6.906 1.233 12.103-1.059 13.344-3.045 1.241-1.985 0-3.81-4.431-6.11-4.737-2.438-10.439-9.088-10.439-9.095-.576-.672-1.08-1.417-1.591-2.132a9.89 9.89 0 0 1-1.54-2.599 11.77 11.77 0 0 1-.562-3.095.373.373 0 0 0-.066-.255.382.382 0 0 0-.248-.088 12.028 12.028 0 0 0-7.366 1.715 1.91 1.91 0 0 0-.591.511 1.986 1.986 0 0 0-.241.606c-.146.555-.299 1.11-.453 1.665a1.54 1.54 0 0 1-.693 1.109c-.504.227-1.066-.131-1.504-.474-.438-.343-.73-1.124-1.205-1.46a2.427 2.427 0 0 0-1.737-.511Z"/>
  <path fill="#FAFAFA" d="M253.522 276.59s-.19-4.826 4.956-7.585c5.147-2.759 8.337-1.11 9.95 0 1.92 1.329 4.687 4.117 3.081 6.22-1.738 2.263-4.555 3.38-9.862 3.547-5.307.168-8.125-2.182-8.125-2.182Z"/>
  <path fill="#BA68C8" d="M173.2 172.835c2.482 7.117 3.351 15.191 12.68 21.754 8.483 5.964 27.433 10.483 29.828 11.68 2.394 1.197 3.971 1.598 5 5.475 1.395 5.292 1.562 9.3 6.526 18.593 3.49 6.533 6.162 11.213 8.914 16.023 2.518.292 11.103-2.066 12.41-4.073-.628-4.059-7.833-42.617-12.184-51.034-3.65-7.118-49.421-30.376-49.421-30.376s-16.235 4.833-13.753 11.958Z"/>
  <path fill="#000" d="M173.2 172.835c2.482 7.117 3.351 15.191 12.68 21.754 8.483 5.964 27.433 10.483 29.828 11.68 2.394 1.197 3.971 1.598 5 5.475 1.395 5.292 1.562 9.3 6.526 18.593 3.49 6.533 6.162 11.213 8.914 16.023 2.518.292 11.103-2.066 12.41-4.073-.628-4.059-7.833-42.617-12.184-51.034-3.65-7.118-49.421-30.376-49.421-30.376s-16.235 4.833-13.753 11.958Z" opacity=".35"/>
  <path fill="#000" d="M236.148 246.339a18.021 18.021 0 0 0 5.358-.803 10.334 10.334 0 0 0-.84-1.548c-3.007-4.519-5.11-9.023-7.862-14.549-5.84-11.731-4.38-23.572-7.555-28.645-2.73-4.344-9.921-8.6-9.921-8.6l13.293-7.672c-.387-.27-.788-.54-1.197-.81h-.058a176.24 176.24 0 0 0-2.577-1.679l-.08-.051-2.774-1.738h-.051l-1.46-.876a191.42 191.42 0 0 0-2.972-1.774l-.131-.08a142.2 142.2 0 0 0-2.993-1.745l-.168-.095-1.46-.824-.073-.044-1.518-.862-.139-.073-1.343-.73-.241-.138-1.46-.811-.095-.058-1.336-.73-.299-.168-1.365-.73-3.147-.562-26.01 10.884c.336.957.73 1.913 1.117 2.869a26.23 26.23 0 0 0 2.658 4.731l12.541 9.555c7.453 3.417 16.994 6.074 21.44 7.476l1.102.357.117.044.307.102.124.044.241.095.087.036.256.11 1.285.62a5.846 5.846 0 0 1 2.599 2.11 9.446 9.446 0 0 1 1.116 2.745c.088.328.168.657.249.978.233.971.445 1.905.657 2.854.073.314.146.635.226.957.226.956.474 1.949.788 3.007.11.351.219.73.336 1.081.241.73.518 1.525.84 2.35a64.627 64.627 0 0 0 3.431 7.366c.211.409.43.81.642 1.204a506.63 506.63 0 0 0 3.541 6.476l.547.978c.73 1.292 1.424 2.533 2.117 3.752.518.912 1.037 1.81 1.548 2.716l.518.898h.044Z" opacity=".1"/>
  <path fill="#FFA8A7" d="M211.51 258.281s3.351 13.14 5.614 17.301a64.974 64.974 0 0 0 8.913 13.053c.854.949 2.774 2.701 3.468 3.467a1.497 1.497 0 0 1-.117 2.314c-1.664 1.657-8.855 2.19-12.943-.781-4.088-2.971-7.526-7.862-9.972-10.22a371.375 371.375 0 0 1-3.219-3.183 3.262 3.262 0 0 1-.869-3.095c.08-.314.161-.679.263-1.117.854-3.905-3.811-13.753-3.811-13.753 3.373-4.891 8.3-4.701 12.673-3.986Z"/>
  <path fill="#263238" d="M202.159 281.086a3.95 3.95 0 0 0 .234 1.964c.401.876 2.92 2.438 4.255 3.052 1.336.613 2.329 1.584 3.512 3.504 1.628 2.642 4.044 5.467 7.015 6.759a21.25 21.25 0 0 0 12.607 1.059c5.249-1.051 5.614-4.161 5.614-4.161s.219-2.92-1.095-3.358c-1.314-.438-32.142-8.819-32.142-8.819Z"/>
  <path fill="#455A64" d="M201.962 272.078a6.64 6.64 0 0 1-.051 1.402c-.139 1.46-.263 2.365-.314 4.022a8.338 8.338 0 0 0 .562 3.584c1.591 2.125 5.271 2.76 7.446 5.651 2.175 2.89 4.774 7.365 11.68 8.599s12.103-1.058 13.337-3.044.037-3.811-4.424-6.11c-4.737-2.446-10.439-9.096-10.446-9.096-.569-.672-1.08-1.416-1.591-2.132a10.067 10.067 0 0 1-1.533-2.606 11.673 11.673 0 0 1-.563-3.088.342.342 0 0 0-.073-.255.348.348 0 0 0-.24-.088 12.029 12.029 0 0 0-7.366 1.716c-.232.125-.434.3-.591.511a1.904 1.904 0 0 0-.241.606c-.154.547-.3 1.102-.453 1.657a1.583 1.583 0 0 1-.73 1.117c-.504.219-1.066-.139-1.504-.475-.438-.336-.73-1.124-1.204-1.496a2.461 2.461 0 0 0-1.701-.475Z"/>
  <path fill="#FAFAFA" d="M216.81 293.781s-.19-4.825 4.957-7.585c5.146-2.759 8.336-1.109 9.95 0 1.92 1.322 4.679 4.118 3.08 6.213-1.737 2.27-4.562 3.387-9.862 3.555-5.3.168-8.125-2.183-8.125-2.183Z"/>
  <path fill="#BA68C8" d="M140.072 167.936c-1.255 7.052-2.92 18.046 1.344 24.258 3.942 5.731 9.212 9.622 18.826 15.761 10.6 6.767 15.892 10.067 18.396 11.848 2.504 1.781 4.935 4.263 5.687 8.205.883 4.585 1.708 9.118 6.19 18.623 3.519 7.475 7.439 14.322 9.425 18.111 2.978.511 10.424-.92 12.373-3.446-1.08-5.657-7.256-45.785-9.891-51.735-2.636-5.949-23.572-23.798-23.572-23.798s-1.657-10.789.037-17.827h-38.815Z"/>
  <path fill="#000" d="M140.072 167.936c-1.255 7.052-2.92 18.046 1.344 24.258 3.942 5.731 9.212 9.622 18.826 15.761 10.6 6.767 15.892 10.067 18.396 11.848 2.504 1.781 4.935 4.263 5.687 8.205.883 4.585 1.708 9.118 6.19 18.623 3.519 7.475 7.439 14.322 9.425 18.111 2.978.511 10.424-.92 12.373-3.446-1.08-5.657-7.256-45.785-9.891-51.735-2.636-5.949-23.572-23.798-23.572-23.798s-1.657-10.789.037-17.827h-38.815Z" opacity=".35"/>
  <path fill="#000" d="M205.4 264.399a12.872 12.872 0 0 0-1.124-2.555c-3.65-6.782-8.797-18.075-11.279-26.499-2.482-8.424-.481-14.564-4.628-19.557a35.07 35.07 0 0 0-4.548-4.971l13.235-8.074a208.49 208.49 0 0 0-8.22-8.03c-8.168-1.745-19.71 3.716-23.36.241-7.687-7.3-4.204-8.979 7.687-15.622 1.365-.73 3.103-1.708 5.001-2.789 7.402-4.38 9.417-8.935 10.22-14.885l-48.297 6.308c-.277 1.54-.569 3.27-.818 5.11a54.439 54.439 0 0 0-.197 1.591 57.909 57.909 0 0 0-.336 4.095c0 .555-.043 1.103-.051 1.657 0 .825 0 1.65.059 2.461 0 .54.073 1.073.131 1.606.129 1.287.374 2.559.73 3.803a13.79 13.79 0 0 0 1.811 3.942l.73 1.058a32.685 32.685 0 0 0 2.496 2.964 40.05 40.05 0 0 0 2.92 2.789c.73.613 1.46 1.219 2.256 1.839.796.621 1.65 1.249 2.548 1.891 2.248 1.606 4.825 3.3 7.832 5.22l3.731 2.379c3.496 2.227 6.285 3.994 8.504 5.417l1.066.679c2.373 1.526 4 2.591 5.11 3.372a16.191 16.191 0 0 1 3.11 2.804 11.682 11.682 0 0 1 2.577 5.402c.883 4.584 1.708 9.117 6.19 18.622 1.76 3.738 3.65 7.3 5.293 10.439a393.51 393.51 0 0 0 1.774 3.3c.927 1.708 1.737 3.19 2.358 4.38 1.838.173 3.693.042 5.489-.387Z" opacity=".1"/>
  <path fill="#37474F" d="M183.821 176.098a54.919 54.919 0 0 1-4.986 6.3l1.417 1.19a20.077 20.077 0 0 0 3.569-7.49Z"/>
  <path fill="#FFA8A7" d="M212.364 167.396c-1.277-5.752-4.73-21.717-6.059-28.579a13.363 13.363 0 0 0-2.336-5.351l-17.14-24.696-2.38 1.745 2.124 27.74 4.826 5.526c2.759 9.336 9.402 27.74 9.402 27.74 3.825 4.591 12.498.065 11.563-4.125Z"/>
  <path fill="#455A64" d="M168.703 102.602c7.453-1.307 12.965-.884 17.688 4.38 3.774 4.204 16.921 24.09 16.921 24.09s-5.19 9.935-14.074 12.008l-12.155-12.14-8.38-28.338Z"/>
  <path fill="#FAFAFA" d="M157.863 103.295c-9.096 1.679-15.17 3.65-16.885 5.307-3.869 7.921 1.168 34.5 1.168 34.5l-.519 12.41-2.19 12.41c9.833 8.307 43.559 5.343 48.91-6.3 0 0-1.737-36.084-2.409-42.771-.773-7.716-4.971-15.79-15.279-16.395l-12.796.839Z"/>
  <path fill="#EBEBEB" d="M151.234 164.622c-2.628-4.044-4.927-14.41-4.927-14.41s4.336-27.098 3.277-33.492l-9.49 12.016a187.915 187.915 0 0 0 2.044 14.366l-.518 12.41-2.19 12.41c7.862 6.643 29.872 7.57 43.523-.84-14.44 4.782-29.084 1.584-31.719-2.46Z"/>
  <path fill="#263238" d="M151.628 79.249s1.417 10.402 2.19 12.147a4.66 4.66 0 0 0 2.519 2.365l.387-7.22-5.096-7.292Zm3.862-14.469a5.068 5.068 0 0 0-4.285 1.154c-1.935 1.7-1.358 7.519.453 13.315l4.073.774-.241-15.243Z"/>
  <path fill="#FFA8A7" d="M156.95 80.118c-.861.43-1.913-1.234-2.847-2.373-.934-1.139-4.146-2.84-6.059.518-1.913 3.358.847 8.352 3.395 9.366 4.38 1.745 5.277-1.088 5.277-1.088l-.978 17.849c4.074 8.877 23.63 8.388 14.783-.256l.321-5.628c2.248.333 4.517.504 6.789.511 3.343-.263 4.876-2.453 6.147-5.957 2.036-5.628 3-10.22 2.474-21.637-.569-12.505-14.972-13.71-23.126-9.395-8.154 4.314-6.176 18.09-6.176 18.09Z"/>
  <path fill="#263238" d="M156.643 58.057a40.202 40.202 0 0 1 8.695-1.927c6.387-.89 12.884-1.672 18.848-4.14a4.024 4.024 0 0 1 2.3-.481c1.46.314 2.022 2.19 1.971 3.723a12.641 12.641 0 0 1-.847 4.146c.883-.905 2.54-.65 3.38.307a4.228 4.228 0 0 1 .73 3.606c-.584 2.781-2.92 4.964-5.555 6.03-2.636 1.066-5.57 1.153-8.417 1.022a57.39 57.39 0 0 1-11.775-1.781 8.265 8.265 0 0 0-2.847-.416 2.596 2.596 0 0 0-2.27 1.54c-.533 1.533-1.76 12.147-3.957 12.023-.409 0-1.759-2.818-2.694-3.847-1.182-1.3-1.774-10.512-1.876-12.22a.728.728 0 0 0-.146-.365c-1.285-2.11.65-5.366 2.497-6.33a17.286 17.286 0 0 1 1.963-.89Z"/>
  <path fill="#263238" d="M152.935 65.474a3.008 3.008 0 0 1-4.278-4.227l4.278 4.227Z"/>
  <path fill="#F28F8F" d="M170.82 98.506s-7.3-1.255-9.811-2.825a8.54 8.54 0 0 1-3.307-3.796 11.686 11.686 0 0 0 1.715 4.314c1.709 2.555 11.235 5.11 11.235 5.11l.168-2.803Z"/>
  <path fill="#263238" d="M171.55 79.278a1.456 1.456 0 0 1-1.879 1.203 1.46 1.46 0 0 1 .514-2.853 1.509 1.509 0 0 1 1.308 1.06c.058.191.077.392.057.59Zm-1.117-5.701-3.263 1.51a1.905 1.905 0 0 1 .927-2.467 1.774 1.774 0 0 1 2.336.957Z"/>
  <path fill="#F28F8F" d="m170.82 89.578 3.278 1.519a1.767 1.767 0 0 1-2.373.949 1.892 1.892 0 0 1-.905-2.468Z"/>
  <path fill="#263238" d="m184.69 75.92-2.716-2.438a1.76 1.76 0 0 1 1.225-.643 1.749 1.749 0 0 1 1.308.446 1.92 1.92 0 0 1 .183 2.635Zm-1.183 3.854a1.486 1.486 0 0 1-.998 1.378c-.19.067-.392.095-.593.082a1.54 1.54 0 1 1 1.591-1.46Z"/>
  <path fill="#F28F8F" d="m175.959 78.249-.175 8.935 4.76-1.241-4.585-7.694Z"/>
  <path fill="#BA68C8" d="M149.584 191.567v.905a2.607 2.607 0 0 0 1.285 2.234l24.535 14.118a2.593 2.593 0 0 0 2.577 0l45.005-25.988a2.574 2.574 0 0 0 1.285-2.227v-.627l-47.574 27.469-27.113-15.884Z"/>
  <path fill="#fff" d="M149.584 191.567v.905a2.607 2.607 0 0 0 1.285 2.234l24.535 14.118a2.593 2.593 0 0 0 2.577 0l45.005-25.988a2.574 2.574 0 0 0 1.285-2.227v-.627l-47.574 27.469-27.113-15.884Z" opacity=".5"/>
  <path fill="#000" d="M149.584 191.567v.905a2.607 2.607 0 0 0 1.285 2.234l24.535 14.118a2.593 2.593 0 0 0 2.577 0l45.005-25.988a2.574 2.574 0 0 0 1.285-2.227v-.627l-47.574 27.469-27.113-15.884Z" opacity=".1"/>
  <path fill="#BA68C8" d="m224.271 179.981-26.682-15.403a1.515 1.515 0 0 0-1.533 0l-46.296 26.733a.338.338 0 0 0-.169.296.34.34 0 0 0 .169.295l26.937 15.549 47.574-27.47Z"/>
  <path fill="#fff" d="m224.271 179.981-26.682-15.403a1.515 1.515 0 0 0-1.533 0l-46.296 26.733a.338.338 0 0 0-.169.296.34.34 0 0 0 .169.295l26.937 15.549 47.574-27.47Z" opacity=".85"/>
  <path fill="#BA68C8" d="m176.864 204.94-14.395-8.3 41.668-24.053 14.469 8.263-41.742 24.09Z"/>
  <path fill="#fff" d="m176.864 204.94-14.395-8.3 41.668-24.053 14.469 8.263-41.742 24.09Z" opacity=".6"/>
  <path fill="#BA68C8" d="m169.375 182.098.262.154 7.06 4.066 12.541-7.242.263-.146-7.322-4.226-12.804 7.394Z"/>
  <path fill="#BA68C8" d="m169.637 182.252 7.06 4.066 12.541-7.242-7.059-4.073-12.542 7.249Z"/>
  <path fill="#fff" d="m169.637 182.252 7.06 4.066 12.541-7.242-7.059-4.073-12.542 7.249Z" opacity=".6"/>
  <path fill="#BA68C8" d="M176.697 207.451v1.716c.45-.002.893-.121 1.284-.343l45.005-25.988a2.574 2.574 0 0 0 1.285-2.227v-.627l-47.574 27.469Z"/>
  <path fill="#fff" d="M176.697 207.451v1.716c.45-.002.893-.121 1.284-.343l45.005-25.988a2.574 2.574 0 0 0 1.285-2.227v-.627l-47.574 27.469Z" opacity=".03"/>
  <path fill="#000" d="M176.697 207.451v1.716c.45-.002.893-.121 1.284-.343l45.005-25.988a2.574 2.574 0 0 0 1.285-2.227v-.627l-47.574 27.469Z" opacity=".2"/>
  <path fill="#BA68C8" d="M177.39 207.831a3.035 3.035 0 0 0 2.628-.204l44.822-25.857a3.068 3.068 0 0 0 1.46-2.132l4.942-29.258c.027-.164.039-.33.037-.496a3.05 3.05 0 0 0-.898-2.19l-46.567 26.9a2.313 2.313 0 0 0-1.095 1.577l-5.329 31.66Z"/>
  <path fill="#fff" d="M177.39 207.831a3.035 3.035 0 0 0 2.628-.204l44.822-25.857a3.068 3.068 0 0 0 1.46-2.132l4.942-29.258c.027-.164.039-.33.037-.496a3.05 3.05 0 0 0-.898-2.19l-46.567 26.9a2.313 2.313 0 0 0-1.095 1.577l-5.329 31.66Z" opacity=".4"/>
  <path fill="#BA68C8" d="m176.697 207.451.306.176c.133.079.272.148.416.204l5.3-31.66a2.31 2.31 0 0 1 1.095-1.577l46.567-26.886a3.325 3.325 0 0 0-.621-.474l-46.661 26.937a2.31 2.31 0 0 0-1.095 1.576l-5.307 31.704Z"/>
  <path fill="#fff" d="m176.697 207.451.306.176c.133.079.272.148.416.204l5.3-31.66a2.31 2.31 0 0 1 1.095-1.577l46.567-26.886a3.325 3.325 0 0 0-.621-.474l-46.661 26.937a2.31 2.31 0 0 0-1.095 1.576l-5.307 31.704Z" opacity=".6"/>
  <path fill="#BA68C8" d="m183.142 175.2-.73-.423a2.33 2.33 0 0 0-.416.963l-5.307 31.704.307.175c.133.08.272.148.416.205l5.3-31.66c.066-.351.214-.681.43-.964Z"/>
  <path fill="#fff" d="m183.142 175.2-.73-.423a2.33 2.33 0 0 0-.416.963l-5.307 31.704.307.175c.133.08.272.148.416.205l5.3-31.66c.066-.351.214-.681.43-.964Z" opacity=".5"/>
  <path fill="#000" d="m183.142 175.2-.73-.423a2.33 2.33 0 0 0-.416.963l-5.307 31.704.307.175c.133.08.272.148.416.205l5.3-31.66c.066-.351.214-.681.43-.964Z" opacity=".1"/>
  <path fill="#455A64" d="M202.655 180.828c.329-1.956 2.351-4.562 4.519-5.84 2.168-1.277 3.65-.679 3.322 1.285-.329 1.964-2.351 4.555-4.512 5.84-2.161 1.285-3.657.672-3.329-1.285Z"/>
  <path fill="#37474F" d="m91.732 221.555 18.016-51.618h6.57l-22.25 52.56a1.256 1.256 0 0 1-.526.591 1.263 1.263 0 0 1-1.81-1.533Z"/>
  <path fill="#455A64" d="m112.624 155.592 50.721 40.26a16.732 16.732 0 0 1 6.263 11.68l6.015 62.313a1.01 1.01 0 0 1-.511.97 1.01 1.01 0 0 1-.951.035 1.03 1.03 0 0 1-.567-.765l-9.935-58.604a16.704 16.704 0 0 0-7.549-11.366l-43.267-27.361a13.993 13.993 0 0 1-1.219-22.79l1 5.628Z"/>
  <path fill="#000" d="M122.677 163.571a14.092 14.092 0 0 0-1.767 7.03 4.843 4.843 0 0 0 .416 2.139 5.246 5.246 0 0 0 1.752 1.781c2.862 2.008 6.161 3.278 9.424 4.533 5.256 2.022 11.118 3.65 16.06 5.11l-25.885-20.593Z" opacity=".2"/>
  <path fill="#37474F" d="M105.792 194.268a7.453 7.453 0 0 0 3.109 9.402l51.779 29.93a4.05 4.05 0 0 0 6.008-4.176l3.979 23.463a14.316 14.316 0 0 0-6.84-9.87l-57.561-33.23a5.915 5.915 0 0 0-6.939.755 5.91 5.91 0 0 0-1.434 2.012l7.899-18.286Z"/>
  <path fill="#FFA8A7" d="M178.85 189.851c-.956-1.555-10.001-11.001-11.14-11.731-2.438-1.643-5.46-1.329-8.804-2.84-3.044-1.372-4.569-2.978-11.41-7.351-6.497-4.154-10.563-6.906-10.563-6.906l8.549-26.871c5.54-10.994 1.511-23.214-2.614-26.47-5.11 1.117-8.599 2.49-11.811 13.958-1.971 7.044-8.563 28.733-9.899 36.04-1.591 8.76-1.883 10.95 5.84 14.782 7.921 3.935 23.163 9.87 25.718 10.95 2.555 1.081 3.314 2.548 5.11 3.57a22.134 22.134 0 0 0 4.183 1.891 16.312 16.312 0 0 1 4.679 2.613c.365.292.73.584 1.132.847 2.358 1.621 4.73 2.869 7.636 1.949 3.197-1.014 4.321-2.883 3.394-4.431Z"/>
  <path fill="#455A64" d="M145.219 106.617c-7.891.912-11.322 3.518-14.162 12.044-2.84 8.527-7.855 27.054-7.855 27.054s8.76 7.716 18.038 6.957l6.169-21.411s8.278-17.578-2.19-24.644Z"/>
  <path fill="#BA68C8" d="M47.143 246.339c-8.117-8.359-12.891-42.479-4.97-49.122H82.49c7.92 6.643 3.154 40.726-4.957 49.107l-.226.233-.277.278a9.216 9.216 0 0 1-.73.657c-.06.055-.124.106-.19.153-.197.161-.394.321-.613.475-.337.245-.688.469-1.052.671-6.68 3.906-17.52 3.906-24.184 0a11.147 11.147 0 0 1-1.059-.679 13.46 13.46 0 0 1-.57-.438l-.24-.189c-.256-.205-.49-.424-.73-.636a6.355 6.355 0 0 1-.322-.321c-.102-.109-.138-.124-.197-.189Z"/>
  <path fill="#fff" d="M47.143 246.339c-8.117-8.359-12.891-42.479-4.97-49.122H82.49c7.92 6.643 3.154 40.726-4.957 49.107l-.226.233-.277.278a9.216 9.216 0 0 1-.73.657c-.06.055-.124.106-.19.153-.197.161-.394.321-.613.475-.337.245-.688.469-1.052.671-6.68 3.906-17.52 3.906-24.184 0a11.147 11.147 0 0 1-1.059-.679 13.46 13.46 0 0 1-.57-.438l-.24-.189c-.256-.205-.49-.424-.73-.636a6.355 6.355 0 0 1-.322-.321c-.102-.109-.138-.124-.197-.189Z" opacity=".5"/>
  <path fill="#BA68C8" d="M78.971 194.538c9.198 5.365 9.198 14.074 0 19.44-9.198 5.365-24.09 5.365-33.295 0-9.205-5.366-9.19-14.075 0-19.44 9.19-5.366 24.105-5.366 33.295 0Z"/>
  <path fill="#fff" d="M78.971 194.538c9.198 5.365 9.198 14.074 0 19.44-9.198 5.365-24.09 5.365-33.295 0-9.205-5.366-9.19-14.075 0-19.44 9.19-5.366 24.105-5.366 33.295 0Z" opacity=".7"/>
  <path fill="#BA68C8" d="M74.548 197.1c6.752 3.942 6.752 10.329 0 14.271-6.753 3.942-17.696 3.942-24.448 0-6.753-3.942-6.753-10.329 0-14.271 6.752-3.942 17.695-3.92 24.448 0Z"/>
  <path fill="#000" d="M74.548 197.1c6.752 3.942 6.752 10.329 0 14.271-6.753 3.942-17.696 3.942-24.448 0-6.753-3.942-6.753-10.329 0-14.271 6.752-3.942 17.695-3.92 24.448 0Z" opacity=".3"/>
  <path fill="#F5F5F5" d="M50.1 203.896c6.752-3.942 17.695-3.942 24.448 0a11.263 11.263 0 0 1 4.044 3.745 11.21 11.21 0 0 1-4.044 3.752c-6.753 3.942-17.696 3.942-24.448 0a11.208 11.208 0 0 1-4.044-3.752 11.262 11.262 0 0 1 4.044-3.745Z"/>
  <path fill="#BA68C8" d="M59.02 186.69a11.397 11.397 0 0 1-1.022-2.92c-.452-2.453.161-5.27 2.147-6.782.788-.598 1.817-1.043 2.19-1.978a3.203 3.203 0 0 0 0-1.62c-.373-2.103-1.08-4.256-.497-6.3a7.043 7.043 0 0 1 3.862-4.212 21.088 21.088 0 0 1 5.701-1.46 9.093 9.093 0 0 0 3.059-.891c1.124-.635 1.46-1.745 2.19-2.723a18.89 18.89 0 0 1 2.767-2.92c2.051-1.832 4.62-3.343 7.46-3.219 5.928.263 5.76 5.365 4.044 9.227-1.715 3.862-2.19 5.11 1.548 9.154s3.709 8.994-.73 11.775c-4.438 2.781-7.3 3.146-5.548 8.497 1.562 4.782 2.533 8.862-1.883 13.965-2.855 3.307-6.76 5.658-11.68 5.461a19.544 19.544 0 0 1-5.709-1.336c-1.343-.665-.438-1.709-.89-3.037-.974-2.847-1.947-5.697-2.92-8.548-.73-2.19-1.33-4.65-2.33-6.738-.547-1.205-1.204-2.271-1.759-3.395Z"/>
  <path fill="#000" d="M59.02 186.69a11.397 11.397 0 0 1-1.022-2.92c-.452-2.453.161-5.27 2.147-6.782.788-.598 1.817-1.043 2.19-1.978a3.203 3.203 0 0 0 0-1.62c-.373-2.103-1.08-4.256-.497-6.3a7.043 7.043 0 0 1 3.862-4.212 21.088 21.088 0 0 1 5.701-1.46 9.093 9.093 0 0 0 3.059-.891c1.124-.635 1.46-1.745 2.19-2.723a18.89 18.89 0 0 1 2.767-2.92c2.051-1.832 4.62-3.343 7.46-3.219 5.928.263 5.76 5.365 4.044 9.227-1.715 3.862-2.19 5.11 1.548 9.154s3.709 8.994-.73 11.775c-4.438 2.781-7.3 3.146-5.548 8.497 1.562 4.782 2.533 8.862-1.883 13.965-2.855 3.307-6.76 5.658-11.68 5.461a19.544 19.544 0 0 1-5.709-1.336c-1.343-.665-.438-1.709-.89-3.037-.974-2.847-1.947-5.697-2.92-8.548-.73-2.19-1.33-4.65-2.33-6.738-.547-1.205-1.204-2.271-1.759-3.395Z" opacity=".15"/>
  <path fill="#fff" d="M67.08 208.357a.429.429 0 0 0 .292-.416c-.248-29.281 15.885-46.757 16.06-46.932a.446.446 0 0 0-.142-.718.425.425 0 0 0-.479.097c-.168.176-16.542 17.893-16.286 47.545a.44.44 0 0 0 .577.409l-.022.015Z"/>
  <path fill="#fff" d="m71.78 181.128.088-.044c5.25-3.307 14.6-5.767 14.71-5.796a.448.448 0 0 0 .327-.365.444.444 0 0 0-.212-.442.447.447 0 0 0-.334-.048c-.387.103-9.592 2.526-14.958 5.899a.451.451 0 0 0-.138.613.445.445 0 0 0 .518.183Zm1.621-4.015a.446.446 0 0 0 .234-.577 33.543 33.543 0 0 0-4.84-8.147.44.44 0 0 0-.296-.154.44.44 0 0 0-.169.019.443.443 0 0 0-.2.704 33.45 33.45 0 0 1 4.702 7.914.445.445 0 0 0 .57.241Z"/>
  <path fill="#BA68C8" d="M64.094 210.481a24.647 24.647 0 0 1-12.855.474c-7.373-1.598-11.885-8.482-11.885-8.482s7.98-3.198 12.63-3.512c0 0-7.22-1.226-13.973.307 0 0-4.27-1.591-3.46-8.804 0 0 4.015-2.964 13.264-1.803 0 0-4.636-3.307-12.76-4.285-.636 0 .226-9.38 1-13.571.773-4.19 2.314-3.533 5.635-3.175 3.322.358 13.14 2.599 14.396 5.008 1.256 2.409 0 8.555 0 8.555a14.063 14.063 0 0 0 2.715-8.03s3.694 1.358 5.673 3.103a13.131 13.131 0 0 1 3.54 4.424c-.46 3.299-2.015 8.329-4.19 11.132 0 0 4.898-3.161 6.022-8.986 0 0 3.913 5 3.877 11.461.007 7.358-3.285 12.826-9.629 16.184Z"/>
  <path fill="#fff" d="M63.94 210.875a.434.434 0 0 1-.262-.365c-1.117-13.965-16.746-35.77-23.66-40.15a.422.422 0 0 1-.13-.584.424.424 0 0 1 .259-.19.411.411 0 0 1 .317.051c7.023 4.461 22.915 26.638 24.046 40.829a.423.423 0 0 1-.387.46.529.529 0 0 1-.182-.051Z"/>
</svg>
