<svg xmlns="http://www.w3.org/2000/svg" width="332" height="332" fill="none" viewBox="0 0 332 332">
  <path fill="#E0E0E0" d="m125.53 42.247-7.742.042.209 38.525 7.742-.042-.209-38.525Z"/>
  <path fill="#EBEBEB" d="m70.765 42.351-20.046.109.115 21.267 20.046-.108-.115-21.268Z"/>
  <path fill="#F5F5F5" d="m90.718 42.243-20.046.109.115 21.267 20.045-.108-.114-21.268Z"/>
  <path fill="#E0E0E0" d="M50.75 48.333c13.32.112 26.679 0 39.999-.18a.212.212 0 0 0 0-.425c-13.324-.08-26.657 0-40 .24a.186.186 0 0 0 0 .364Z"/>
  <path fill="#EBEBEB" d="m74.65 63.266-36.427.197.094 17.33 36.427-.197-.094-17.33Z"/>
  <path fill="#F5F5F5" d="m110.896 63.07-36.426.197.093 17.33 36.427-.197-.094-17.33Z"/>
  <path fill="#E0E0E0" d="M38.246 68.28c24.197.278 48.472 0 72.675-.36a.212.212 0 0 0 .213-.212.213.213 0 0 0-.213-.212c-24.196-.127-48.472-.113-72.675.418a.186.186 0 0 0 0 .365Zm127.495 12.516H24.621v6.208h141.12v-6.209Z"/>
  <path fill="#E0E0E0" d="M53.459 83.777h-5.73v21.188h5.73V83.777Zm85.516 0h-5.73v21.188h5.73V83.777Z"/>
  <path fill="#EBEBEB" d="m133.082 27.877-7.742.042.286 52.98 7.743-.042-.287-52.98Z"/>
  <path fill="#F5F5F5" d="m145.356 37.079-12.032.12.429 42.934 12.032-.12-.429-42.934Z"/>
  <path fill="#E0E0E0" d="M145.097 46.022c0 .12-2.696.212-6.016.212s-6.015-.093-6.015-.212c0-.12 2.695-.206 6.015-.206s6.016.093 6.016.206Zm0-1.8c0 .113-2.696.206-6.016.206s-6.015-.093-6.015-.206c0-.113 2.695-.212 6.015-.212s6.016.093 6.016.212Zm0 30.007c0 .112-2.696.205-6.016.205s-6.015-.093-6.015-.205c0-.113 2.695-.213 6.015-.213s6.016.093 6.016.213Zm0-1.807c0 .113-2.696.213-6.016.213s-6.015-.1-6.015-.213c0-.112 2.695-.205 6.015-.205s6.016.093 6.016.206Zm-5.823-3.937c-.113 0-.206-4.33-.206-9.668 0-5.339.093-9.681.206-9.681.113 0 .212 4.336.212 9.681 0 5.345-.092 9.668-.212 9.668Z"/>
  <path fill="#EBEBEB" d="M158.324 48.293H145.23v32.41h13.094v-32.41Z"/>
  <path fill="#E0E0E0" d="M129.095 39.163a2.224 2.224 0 1 0 0-4.45 2.224 2.224 0 0 0 0 4.45Zm.69 3.891h-1.374v31.52h1.374v-31.52Zm129.48-5.751h48.731v70.657h-48.399l-.332-70.656Z"/>
  <path fill="#fff" d="M255.613 107.628H303.9V37.635h-48.287v69.993Z"/>
  <path fill="#E0E0E0" d="M304.232 37.303v70.657h-48.951V37.304h48.951Zm-.664 69.993V37.967h-47.623v69.329h47.623Z"/>
  <path fill="#fff" d="M297.897 45.218h-36.288v54.827h36.288V45.218Z"/>
  <path fill="#E0E0E0" d="M261.616 45.218v4.057c0 2.656 0 6.468.04 11.288 0 9.668.046 23.353.08 39.469l-.16-.16h36.288l-.173.173c0-20.684 0-39.754.04-54.827l.133.14-26.401-.073-7.304-.04h-2.576 9.827l26.487-.073h.139v55.138h-36.619v-.159l.079-39.574c0-4.82.034-8.632.047-11.288V45.55c0-.179.073-.332.073-.332Z"/>
  <path fill="#E0E0E0" d="M255.474 107.628a6.4 6.4 0 0 1 .784-1.202 72.573 72.573 0 0 1 2.091-2.749 61.048 61.048 0 0 1 2.238-2.656 6.1 6.1 0 0 1 1.022-1.003c.073.067-1.328 1.753-2.988 3.852a38.273 38.273 0 0 1-3.147 3.758Zm.166-69.992a35.016 35.016 0 0 1 3.134 3.685 33.353 33.353 0 0 1 2.842 3.897 35.005 35.005 0 0 1-3.134-3.685 33.353 33.353 0 0 1-2.842-3.898Z"/>
  <path fill="#fff" d="M303.906 37.695a2928.982 2928.982 0 0 0-6.328 7.802l6.328-7.802Z"/>
  <path fill="#E0E0E0" d="M297.578 45.497a36.52 36.52 0 0 1 3.028-3.984 37.032 37.032 0 0 1 3.32-3.791 37.172 37.172 0 0 1-3.028 3.984 35.893 35.893 0 0 1-3.32 3.791Zm6.322 62.131a32.929 32.929 0 0 1-3.108-3.646 33.511 33.511 0 0 1-2.835-3.857 32.516 32.516 0 0 1 3.107 3.645 34.067 34.067 0 0 1 2.836 3.858Zm-21.806-34.196h-6.381l-.764 1.76a3.99 3.99 0 0 0-.372 1.454 1.227 1.227 0 0 0 .611 1.122 5.313 5.313 0 0 0 1.773.318v.492h-6.009v-.492a2.69 2.69 0 0 0 1.6-.81 10.819 10.819 0 0 0 1.547-2.722l6.461-14.429h.252l6.521 14.827a9.029 9.029 0 0 0 1.534 2.656c.36.3.812.471 1.281.485v.491h-8.745v-.49h.359a2.767 2.767 0 0 0 1.48-.293.726.726 0 0 0 .293-.618 1.609 1.609 0 0 0-.08-.491c0-.08-.153-.412-.398-1.003l-.963-2.257Zm-.452-.99-2.696-6.221-2.768 6.221h5.464ZM4.814 231.504l2.477 8.698 236.191 68.591 81.241-53.611v-7.317L4.814 231.504Z"/>
  <path fill="#EBEBEB" d="m89.547 192.148 235.176 55.717-81.241 53.013L4.814 231.504l84.733-39.356Zm160.057 105.065a61.328 61.328 0 0 1-2.974 5.724 59.255 59.255 0 0 1-3.281 5.557 120.036 120.036 0 0 1 6.255-11.288v.007Zm7.762-5.053a61.328 61.328 0 0 1-2.974 5.724 59.464 59.464 0 0 1-3.28 5.557 119.8 119.8 0 0 1 6.254-11.288v.007Zm7.763-5.073a61.578 61.578 0 0 1-2.975 5.724 58.35 58.35 0 0 1-3.28 5.557c1.88-3.872 3.968-7.64 6.255-11.288v.007Zm7.775-5.06a60.974 60.974 0 0 1-2.975 5.724 59.48 59.48 0 0 1-3.28 5.558 119.785 119.785 0 0 1 6.255-11.288v.006Zm7.749-5.059a61.08 61.08 0 0 1-2.975 5.723 59.48 59.48 0 0 1-3.28 5.558 59.9 59.9 0 0 1 2.975-5.73 58.808 58.808 0 0 1 3.28-5.551Zm7.762-5.067a60.974 60.974 0 0 1-2.975 5.724 58.366 58.366 0 0 1-3.28 5.558 119.785 119.785 0 0 1 6.255-11.288v.006Zm7.762-5.059a61.311 61.311 0 0 1-2.974 5.723 59.27 59.27 0 0 1-3.281 5.558 120.036 120.036 0 0 1 6.255-11.288v.007Zm7.762-5.06a63.199 63.199 0 0 1-2.974 5.724 58.603 58.603 0 0 1-3.281 5.551 59.683 59.683 0 0 1 2.975-5.724 58.808 58.808 0 0 1 3.28-5.551Zm7.763-5.066a61.56 61.56 0 0 1-2.975 5.723 59.48 59.48 0 0 1-3.28 5.558c1.88-3.872 3.968-7.64 6.255-11.288v.007Zm7.762-5.06a61.578 61.578 0 0 1-2.975 5.724 59.575 59.575 0 0 1-3.28 5.564 59.9 59.9 0 0 1 2.975-5.73 58.366 58.366 0 0 1 3.28-5.558Zm5.265-.558a22.463 22.463 0 0 1-1.726 3.473 22.151 22.151 0 0 1-2.032 3.32 21.728 21.728 0 0 1 1.726-3.473 21.154 21.154 0 0 1 2.032-3.32Zm-83.325 56.998a10.719 10.719 0 0 1-1.375-1.328 73.057 73.057 0 0 1-3.054-3.506 81.166 81.166 0 0 1-2.849-3.672 9.515 9.515 0 0 1-1.055-1.607c.454.453.872.941 1.248 1.461l2.922 3.599 2.968 3.559c.437.465.837.965 1.195 1.494Zm-10.95-3.147a9.747 9.747 0 0 1-1.374-1.328 71.432 71.432 0 0 1-3.054-3.5 80.44 80.44 0 0 1-2.849-3.672 9.714 9.714 0 0 1-1.056-1.613c.453.454.87.943 1.249 1.461l2.921 3.605c1.122 1.328 2.138 2.557 2.968 3.559.439.462.838.96 1.195 1.488Zm-10.949-3.115a9.639 9.639 0 0 1-1.374-1.328 71.36 71.36 0 0 1-3.055-3.499 81.046 81.046 0 0 1-2.848-3.672 9.39 9.39 0 0 1-1.056-1.613c.455.452.872.941 1.248 1.461l2.922 3.605 2.968 3.559c.437.464.836.961 1.195 1.487Zm-10.949-3.107a10.214 10.214 0 0 1-1.375-1.328 73.057 73.057 0 0 1-3.054-3.506 80.44 80.44 0 0 1-2.849-3.672 9.494 9.494 0 0 1-1.055-1.607c.456.451.874.94 1.248 1.461l2.921 3.599 2.969 3.559c.44.463.84.963 1.195 1.494Zm-10.95-3.114a9.692 9.692 0 0 1-1.374-1.328 71.346 71.346 0 0 1-3.054-3.499 81.564 81.564 0 0 1-2.849-3.672 9.722 9.722 0 0 1-1.056-1.614c.455.453.873.941 1.249 1.461l2.921 3.605c1.122 1.328 2.138 2.557 2.968 3.559.441.46.841.958 1.195 1.488Zm-10.949-3.114a9.693 9.693 0 0 1-1.374-1.328 71.922 71.922 0 0 1-3.055-3.5 80.323 80.323 0 0 1-2.848-3.672 9.35 9.35 0 0 1-1.056-1.613c.456.454.873.945 1.248 1.467l2.922 3.599 2.968 3.559c.439.462.839.959 1.195 1.488Zm-10.949-3.108a9.646 9.646 0 0 1-1.375-1.328 69.254 69.254 0 0 1-3.054-3.506 83.91 83.91 0 0 1-2.849-3.672 9.52 9.52 0 0 1-1.056-1.607c.457.451.875.94 1.249 1.461l2.921 3.599 2.968 3.559c.441.463.841.963 1.196 1.494Z"/>
  <path fill="#EBEBEB" d="M164.758 285.659a9.639 9.639 0 0 1-1.374-1.328 75.327 75.327 0 0 1-3.055-3.499 81.046 81.046 0 0 1-2.848-3.672 9.449 9.449 0 0 1-1.056-1.613c.455.452.872.941 1.248 1.461l2.922 3.605 2.968 3.559c.439.462.839.959 1.195 1.487Zm-12.184-3.386a9.479 9.479 0 0 1-1.381-1.328 80.357 80.357 0 0 1-3.055-3.499 71.967 71.967 0 0 1-2.842-3.672 10.806 10.806 0 0 1-1.062-1.614c.458.451.878.94 1.255 1.461l2.915 3.606c1.129 1.328 2.145 2.563 2.975 3.559.438.462.838.959 1.195 1.487Zm-12.191-3.393a9.699 9.699 0 0 1-1.375-1.328 72.436 72.436 0 0 1-3.054-3.499 77.111 77.111 0 0 1-2.849-3.679 9.515 9.515 0 0 1-1.055-1.607c.457.451.874.94 1.248 1.461.817 1.009 1.819 2.238 2.922 3.606l2.968 3.552c.44.463.84.963 1.195 1.494Zm-12.231-3.931a9.639 9.639 0 0 1-1.374-1.328 75.254 75.254 0 0 1-3.055-3.499c-1.149-1.401-2.211-2.729-2.875-3.692a9.68 9.68 0 0 1-1.056-1.614c.455.453.873.941 1.249 1.461l2.921 3.606 2.968 3.559c.449.467.858.971 1.222 1.507Zm-12.297-3.433a9.646 9.646 0 0 1-1.375-1.328 80.44 80.44 0 0 1-5.903-7.171 9.708 9.708 0 0 1-1.055-1.613c.454.452.872.941 1.248 1.46.823 1.01 1.819 2.245 2.921 3.606l2.975 3.559c.439.46.836.958 1.189 1.487Zm-12.337-3.605a9.646 9.646 0 0 1-1.375-1.328 74.946 74.946 0 0 1-3.06-3.5 72.445 72.445 0 0 1-2.843-3.678 10.52 10.52 0 0 1-1.062-1.607c.46.449.88.938 1.255 1.461l2.921 3.605 2.968 3.553c.438.465.838.964 1.196 1.494Zm-11.886-3.34a9.658 9.658 0 0 1-1.375-1.328 71.866 71.866 0 0 1-3.054-3.499 77.747 77.747 0 0 1-2.848-3.679 9.535 9.535 0 0 1-1.056-1.607c.454.453.872.941 1.248 1.461.817 1.009 1.82 2.238 2.922 3.605l2.968 3.553c.438.465.837.965 1.195 1.494Zm-12.191-3.187a9.713 9.713 0 0 1-1.374-1.328 79.962 79.962 0 0 1-5.903-7.178 10.1 10.1 0 0 1-1.056-1.607c.458.451.878.94 1.255 1.461l2.915 3.605 2.974 3.559c.44.459.839.957 1.189 1.488Zm-10.711-3.573a9.653 9.653 0 0 1-1.374-1.328 79.75 79.75 0 0 1-3.054-3.499 72.602 72.602 0 0 1-2.849-3.679 10.105 10.105 0 0 1-1.029-1.633c.46.449.88.938 1.255 1.461l2.915 3.605 2.975 3.553c.431.471.82.98 1.162 1.52Zm-10.71-3.572a10.087 10.087 0 0 1-1.374-1.328 76.67 76.67 0 0 1-3.055-3.506 79.88 79.88 0 0 1-2.848-3.672 10.1 10.1 0 0 1-1.056-1.607c.46.449.88.938 1.255 1.461l2.915 3.599 2.975 3.559c.44.462.837.962 1.188 1.494Zm-9.707-2.656a9.652 9.652 0 0 1-1.375-1.328 71.86 71.86 0 0 1-3.054-3.499 76.73 76.73 0 0 1-2.849-3.679 9.54 9.54 0 0 1-1.056-1.607c.455.453.873.941 1.249 1.461l2.921 3.599 2.995 3.539c.43.473.82.979 1.169 1.514Zm-11.129-3.041a9.658 9.658 0 0 1-1.374-1.328 69.235 69.235 0 0 1-3.055-3.506 84.85 84.85 0 0 1-2.848-3.672 9.535 9.535 0 0 1-1.056-1.607c.457.451.874.939 1.248 1.461l2.922 3.599 2.968 3.519c.442.476.842.989 1.195 1.534ZM27.058 245.6c-.5-.398-.963-.843-1.381-1.328-.81-.863-1.9-2.098-3.055-3.499a71.442 71.442 0 0 1-2.841-3.672 9.947 9.947 0 0 1-1.063-1.613c.46.452.88.943 1.255 1.467l2.915 3.599 3.008 3.532c.427.473.816.979 1.162 1.514Zm-11.448-3.572a10.58 10.58 0 0 1-1.374-1.328 75.32 75.32 0 0 1-3.06-3.499 75.467 75.467 0 0 1-2.843-3.672 10.358 10.358 0 0 1-1.062-1.614c.459.453.879.944 1.255 1.468l2.921 3.599 2.968 3.559c.438.463.838.96 1.196 1.487Z"/>
  <path fill="#263238" d="M53.492 236.922a6.308 6.308 0 0 1-.883-11.162 23.732 23.732 0 0 1 10.544-3.32 22.037 22.037 0 0 1 11.706 2.138c4.575 2.231 4.688 9.489-.478 12.025-7.417 3.606-13.685 3.406-20.89.319Z"/>
  <path fill="#263238" d="m61.154 147.713.664-.073 2.172-.205h.046v.046c.2 8.705.704 40.132 1.242 77.522v.392h-.16l-2.436.199h-.18v-.179l-1.016-55.112c-.12-6.999-.212-12.656-.278-16.6 0-1.939-.047-3.446-.06-4.482v-1.547.411c0 .266 0 .664.04 1.182 0 1.043.06 2.563.112 4.522.087 3.924.22 9.595.379 16.6.325 14.07.737 33.459 1.182 55.046l-.186-.173 2.43-.199-.16.172v-.225c-.537-37.39-.929-68.824-.982-77.529l.047.04-2.152.153-.704.039Z"/>
  <path fill="#263238" d="m56.44 155.071.345-.24 1.07-.717 4.143-2.722 15.272-10.093 50.842-33.465.153-.1.093.153 1.54 2.483.16.259.086.146-.139.093c-35.14 22.702-64.574 41.646-72.197 46.48l-.04.02v-.033l-.99-1.713a9.254 9.254 0 0 1-.298-.545s.12.186.339.551c.219.365.564.917 1.015 1.667h-.053c7.543-4.967 36.919-24.01 72.051-46.712l-.053.239a2.537 2.537 0 0 0-.16-.259c-.524-.857-1.049-1.7-1.54-2.49l.246.053-50.836 33.259-15.365 10.007-4.183 2.722-1.096.704a3.21 3.21 0 0 1-.405.253Z"/>
  <path fill="#263238" d="M66.002 153.338a3.705 3.705 0 1 1-7.406.247 3.705 3.705 0 0 1 7.406-.247Z"/>
  <path fill="#FF725E" d="M125.43 113.783s-8.878 5.04-2.729 26.255c0 0 24.255-.306 33.326-14.157 0 0-8.632-18.041-19.555-16.261l-11.042 4.163Zm.279-3.765-1.946-5.106a4.109 4.109 0 0 1 .181-3.333 4.11 4.11 0 0 1 5.515-1.786c.9.457 1.6 1.23 1.967 2.171l2.177 5.617-7.894 2.437Z"/>
  <path fill="#263238" d="m125.43 113.783.152-4.084 7.597-3.207 3.293 3.128-11.042 4.163Z"/>
  <path fill="#455A64" d="M77.489 226.968a1.29 1.29 0 0 1 0 .366c-.02.352-.065.702-.133 1.049a8.569 8.569 0 0 1-1.613 3.512 11.284 11.284 0 0 1-4.595 3.413 19.554 19.554 0 0 1-6.88 1.401c-1.248.053-2.47 0-3.645-.033a24.499 24.499 0 0 1-3.373-.385 10.134 10.134 0 0 1-5.172-2.437 6.714 6.714 0 0 1-1.992-3.32 5.31 5.31 0 0 1-.12-1.049 1.987 1.987 0 0 1 0-.365c.048.464.124.925.226 1.381a6.753 6.753 0 0 0 1.992 3.167 10.06 10.06 0 0 0 5.066 2.304c1.097.194 2.207.314 3.32.359 1.162.06 2.377.08 3.606 0a19.63 19.63 0 0 0 6.772-1.328 11.118 11.118 0 0 0 4.529-3.274 8.797 8.797 0 0 0 1.673-3.393c.279-.863.299-1.368.339-1.368Z"/>
  <path fill="#fff" d="M152.282 121.512a1.468 1.468 0 0 1-.233.259l-.703.664c-.306.299-.664.664-1.156 1.049-.491.385-.976.857-1.593 1.328-.618.472-1.262.983-1.992 1.494a73.419 73.419 0 0 1-2.397 1.58 53.082 53.082 0 0 1-5.844 3.042 51.975 51.975 0 0 1-6.215 2.197c-.982.253-1.905.512-2.795.664-.89.153-1.707.332-2.464.452-.757.119-1.44.199-2.045.265a25.54 25.54 0 0 1-1.553.133l-.983.047a1.246 1.246 0 0 1-.345 0c.109-.037.223-.057.338-.06l.976-.113c.425-.04.943-.093 1.541-.192.597-.1 1.288-.16 2.032-.313.743-.152 1.573-.278 2.443-.491.87-.212 1.8-.445 2.769-.704a50.012 50.012 0 0 0 11.952-5.205c.85-.538 1.673-1.03 2.404-1.548.73-.518 1.414-.989 1.992-1.447.577-.458 1.142-.897 1.613-1.275.472-.378.877-.71 1.195-.996l.744-.664c.098-.07.205-.126.319-.166Z"/>
  <path fill="#E0E0E0" d="M206.066 289.763a13.697 13.697 0 0 0 11.062-5.863c1.122-1.634 1.992-3.612 3.705-4.568 2.809-1.541 6.155.338 9.031 1.739 5.909 2.875 13.193 3.712 18.977.591 2.988-1.613 5.451-4.19 8.632-5.312 2.908-1.036 6.102-.757 9.176-.438s6.242.664 9.197-.246c2.954-.909 5.644-3.433 5.717-6.52.059-2.855-2.138-5.372-4.755-6.514-2.616-1.142-5.564-1.155-8.406-1.023-15.889.751-31.487 5.757-47.376 5.053-3.101-.139-6.468-.438-9.077 1.249-3.413 2.191-4.17 6.799-4.29 10.856-.119 4.057-.073 8.513-2.689 11.613"/>
  <path fill="#FF725E" d="M205.375 251.895a25.863 25.863 0 0 0-1.474 2.928c-.624 2.099-2.915 9.562 0 13.46 3.32 4.402 21.912 4.282 23.406 4.262h.186l27.051-1.912c.285-.018.567-.074.837-.166l23.207-7.968a3.323 3.323 0 0 0 1.447-.989 3.321 3.321 0 0 0-.444-4.688l-17.371-14.07a3.133 3.133 0 0 0-1.221-.618 81.552 81.552 0 0 0-33.652-1.168c-10.963 2.012-16.474 3.592-21.972 10.929Z"/>
  <path fill="#FF725E" d="M277.678 261.981a3.215 3.215 0 0 0-.836 4.329c1.089 1.581 3.525 1.78 5.159.777 1.633-1.002 2.556-2.881 2.935-4.767.259-1.328.225-2.882-.771-3.792a4.576 4.576 0 0 0-2.556-.916 61.212 61.212 0 0 0-7.795-.538"/>
  <path fill="#000" d="M269.312 257.858c1.806.664 5.67 1.832 7.583 1.892a6.416 6.416 0 0 0 5.172-2.025c.181-.268.405-.504.664-.697a.734.734 0 0 1 .897 0c.298.285.159.783 0 1.155a6.842 6.842 0 0 1-5.764 3.599c-2.377.06-7.304-1.879-8.519-3.931" opacity=".3"/>
  <path fill="#FF725E" d="M269.67 235.932s-10.942 1.554-7.921 13.48c3.021 11.925 15.126 11.394 17.264 11.082a5.84 5.84 0 0 0 1.959-.784 12.02 12.02 0 0 0 5.796-9.156l.067-.578 6.368-5.976s-1.84-1.003-8.367-.259l-7.968-6.129s.923-7.43-.046-7.968c-.97-.537-7.152 6.288-7.152 6.288Zm-65.935 20.538c-1.992 3.486-1.242 7.809-.498 11.746.744 3.938 1.375 8.3-.73 11.706a8.407 8.407 0 0 1-7.517 3.892c-2.536-.16-4.827-1.461-7.184-2.404-2.357-.943-5.146-1.507-7.351-.246-2.35 1.328-3.253 4.489-2.51 7.092.744 2.603 2.849 4.648 5.219 5.929 4.987 2.709 11.288 2.444 16.341-.206 5.054-2.649 8.719-7.47 10.525-12.848 1.806-5.378 1.826-11.255.631-16.799"/>
  <path fill="#263238" d="m273.947 247.493.232 3.273 2.656-1.056s-.963-2.005-2.888-2.217Z"/>
  <path fill="#000" d="M239.478 271.862a5.319 5.319 0 0 0 3.32-4.35 7.885 7.885 0 0 0-1.5-5.444 10.624 10.624 0 0 0-11.547-3.984c-.784.245-1.627.664-1.813 1.474a1.861 1.861 0 0 0 .664 1.759 7.031 7.031 0 0 0 1.706.996 15.84 15.84 0 0 1 8.334 10.624" opacity=".3"/>
  <path fill="#FF725E" d="M224.89 257.127a12.895 12.895 0 0 1 11.389 3.704 12.881 12.881 0 0 1 3.425 11.475c1.68.525 3.493.127 5.219-.192 1.726-.319 3.625-.531 5.173.305 1.547.837 2.383 3.141 1.168 4.409a4.407 4.407 0 0 1-2.457 1.016c-4.887.923-9.96 1.846-14.78.664-2.875-.71-5.505-2.145-8.101-3.559-2.882-1.567-2.623-.989-5.498-2.556"/>
  <path fill="#000" d="m271.669 264.392-2.656-.664a13.014 13.014 0 0 1-3.612-1.242 4.478 4.478 0 0 1-2.278-2.935c-.186-1.056.319-2.324 1.328-2.596.824-.219 1.654.232 2.384.664a1405.37 1405.37 0 0 1 6.202 3.678c.482.221.881.588 1.142 1.049a1.643 1.643 0 0 1-.591 1.873c-.585.4-1.283.603-1.992.578" opacity=".3"/>
  <path fill="#FF725E" d="M252.101 260.998a9.995 9.995 0 0 0 4.09 7.258 13.595 13.595 0 0 0 8.081 2.536c2.869 0 5.823-.664 8.559.173 1.773.558 3.32 1.74 5.046 2.351 1.727.611 4.051.438 5.02-1.142.897-1.455.206-3.46-1.082-4.575-1.288-1.116-3.008-1.567-4.648-1.992l-7.583-1.893a11.893 11.893 0 0 1-4.435-1.779c-1.269-.976-2.132-2.656-1.647-4.203"/>
  <path fill="#263238" d="M277.193 252.738c-.436.197-.929.23-1.387.093a2.492 2.492 0 0 1-1.361-.75 1.327 1.327 0 0 1-.339-.93 1.022 1.022 0 0 1 .611-.896l.139.312c-.066 0-.133.066-.212.093a2.656 2.656 0 0 1-1.992-.046 2.483 2.483 0 0 1-1.189-1.116 1.793 1.793 0 0 1-.212-1.441c.065.464.208.913.425 1.328.257.421.64.751 1.095.943.559.22 1.181.22 1.74 0l.186-.073.133.312a.698.698 0 0 0-.392.604.964.964 0 0 0 .246.697c.312.353.72.607 1.175.731.439.093.886.139 1.334.139Zm5.744-.418c0 .04-.219.193-.664.292a3.085 3.085 0 0 1-1.733-.119 2.892 2.892 0 0 1-1.368-1.076c-.245-.379-.285-.664-.252-.664.033 0 .179.219.451.525.349.401.792.711 1.289.903a5.52 5.52 0 0 0 2.277.139Zm-21.062-15.133s2.145 2.384 4.728 5.379c2.583 2.994 4.648 5.445 4.648 5.471 0 .027-2.145-2.384-4.728-5.378-2.583-2.995-4.681-5.445-4.648-5.472Zm2.961-3.585s1.514 2.975 3.32 6.686c1.806 3.712 3.208 6.74 3.174 6.753-.033.013-1.514-2.975-3.32-6.693-1.806-3.718-3.207-6.733-3.174-6.746Zm-13.598 43.406a3.162 3.162 0 0 0-.246-.784 2.699 2.699 0 0 0-1.501-1.215 5.3 5.3 0 0 0-1.992-.199c-.511 0-.83.066-.836.046-.007-.02.079-.033.219-.06a7.9 7.9 0 0 1 .611-.086 4.752 4.752 0 0 1 2.025.166 2.649 2.649 0 0 1 1.54 1.328c.092.188.15.39.173.598a.79.79 0 0 1 .007.206Zm.292-2.331s-.1-.286-.359-.664a2.778 2.778 0 0 0-3.213-1.122c-.445.146-.664.332-.704.312a.718.718 0 0 1 .166-.14 2.4 2.4 0 0 1 .504-.265 2.793 2.793 0 0 1 1.879 0 2.759 2.759 0 0 1 1.448 1.188c.101.165.181.341.239.525a.53.53 0 0 1 .04.166Zm-39.993-16.647a4.495 4.495 0 0 0-.91 1.76 6.282 6.282 0 0 0-.152 2.151c.106.882.295 1.751.564 2.597.266.909.531 1.779.664 2.589.15.72.197 1.458.14 2.191a4.804 4.804 0 0 1-.346 1.435 2.629 2.629 0 0 1-.252.478s.08-.173.199-.498c.168-.457.269-.936.299-1.421a7.898 7.898 0 0 0-.166-2.158c-.153-.804-.425-1.667-.664-2.577a13.596 13.596 0 0 1-.558-2.656 6.257 6.257 0 0 1 .186-2.184c.136-.48.362-.931.664-1.328.096-.138.208-.265.332-.379Zm42.27-.81a.594.594 0 0 1 0 .146c0 .127-.033.259-.053.399-.062.489-.096.981-.099 1.474-.007.733.046 1.466.159 2.191.142.882.364 1.749.664 2.59.323.834.723 1.637 1.195 2.397.393.618.837 1.203 1.328 1.746.327.37.678.718 1.049 1.043l.306.265.099.106a9.745 9.745 0 0 1-1.527-1.328c-.505-.538-.96-1.12-1.361-1.739a14.562 14.562 0 0 1-1.222-2.424 14.293 14.293 0 0 1-.664-2.616 12.209 12.209 0 0 1-.126-2.211 9.334 9.334 0 0 1 .252-2.039Zm21.667 8.055s-.199-.08-.571-.213a13.006 13.006 0 0 0-1.594-.471c-1.361-.359-3.32-.525-5.378-1.209a7.9 7.9 0 0 1-2.656-1.467 5.311 5.311 0 0 1-1.428-2.032 3.897 3.897 0 0 1-.279-1.647 2.3 2.3 0 0 1 .106-.604c-.12.75-.028 1.518.266 2.218.313.765.8 1.446 1.421 1.992a7.869 7.869 0 0 0 2.616 1.441c2.039.664 3.984.856 5.359 1.241.542.132 1.075.303 1.593.512.187.067.369.147.545.239Zm6.726 7.921s-.153-.246-.432-.604a5.44 5.44 0 0 0-2.915-1.939c-.438-.119-.723-.153-.723-.173 0-.02.073 0 .206 0 .183.014.365.041.544.08a5.007 5.007 0 0 1 1.667.711c.518.336.968.766 1.328 1.268.105.149.198.307.279.471.006.113.046.18.046.186Zm1.401-2.038s-.1-.259-.332-.631a2.964 2.964 0 0 0-2.888-1.395c-.439.047-.664.16-.704.133a.563.563 0 0 1 .172-.093 2.866 2.866 0 0 1 3.506 1.308c.087.154.156.316.206.485a.67.67 0 0 1 .04.193Zm-1.919-9.588a7.327 7.327 0 0 0-1.162-.147 4.477 4.477 0 0 0-2.656.811c-.431.28-.798.649-1.076 1.082a2.912 2.912 0 0 0-.385 1.182 6.25 6.25 0 0 0 .053 1.168 2.762 2.762 0 0 1-.152-1.175c.029-.435.158-.858.378-1.235a3.65 3.65 0 0 1 1.102-1.135 4.402 4.402 0 0 1 2.723-.797c.29.013.577.06.856.139.111.02.219.055.319.107Z"/>
  <path fill="#263238" d="M280.925 263.462a1.1 1.1 0 0 1-.491.365 1.9 1.9 0 0 1-1.461.04 1.897 1.897 0 0 1-1.016-1.049 1.095 1.095 0 0 1-.1-.604 6.2 6.2 0 0 0 .186.564 1.826 1.826 0 0 0 2.358.956c.338-.126.511-.292.524-.272Zm-.485 1.633a1.465 1.465 0 0 1-.597.312 2.846 2.846 0 0 1-1.62.034 2.884 2.884 0 0 1-1.368-.864 1.68 1.68 0 0 1-.352-.577s.146.219.425.511c.368.374.825.648 1.328.797a2.99 2.99 0 0 0 1.554 0c.398-.1.617-.233.63-.213Zm2.763 4.383a4.673 4.673 0 0 0-.824-1.083 9.25 9.25 0 0 0-2.842-1.613c-1.201-.472-2.317-.843-3.114-1.129l-.943-.339a2.145 2.145 0 0 1-.345-.139c.122.016.242.045.359.086l.962.299c.804.259 1.919.624 3.128 1.096a8.527 8.527 0 0 1 2.868 1.673c.242.237.446.51.605.81.061.107.11.221.146.339Zm-9.489-10.047a10.634 10.634 0 0 1-1.906-1.201 13.626 13.626 0 0 1-3.711-4.383l.126-.046a7.84 7.84 0 0 0 1.474 2.921l.232.279-.318-.179-.379-.219a13.07 13.07 0 0 1-5.445-6.169 12.194 12.194 0 0 1-.757-2.41 10.577 10.577 0 0 1-.132-.916s0 .079.053.232c.053.153.059.385.132.664.189.818.453 1.616.791 2.384a13.201 13.201 0 0 0 5.424 6.089l.379.219-.086.106a7.89 7.89 0 0 1-1.494-2.975l-.146-.544.265.498a13.895 13.895 0 0 0 3.639 4.376c.426.341.869.66 1.328.956l.378.225.153.093Zm-33.864-5.026a1.126 1.126 0 0 1-.259-.08 6.286 6.286 0 0 1-.664-.292 11.518 11.518 0 0 1-2.091-1.275 11.65 11.65 0 0 1-1.78-1.68 6.801 6.801 0 0 1-.458-.584c-.106-.139-.16-.219-.146-.226.013-.006.252.292.664.744a13.795 13.795 0 0 0 1.793 1.64c.644.488 1.328.921 2.045 1.295.551.285.903.438.896.458Zm0-.903a13.6 13.6 0 0 1-1.594-1.268 15.442 15.442 0 0 1-1.507-1.375c.561.385 1.093.809 1.594 1.268.53.427 1.034.886 1.507 1.375Zm1.275-.345a3.79 3.79 0 0 1-1.109-.664 3.594 3.594 0 0 1-.89-.95s.425.392.983.843c.558.452 1.036.737 1.016.771Z"/>
  <path fill="#fff" d="M240.68 239.704c1.992-.04.611 3.32-.232 4.9a5.829 5.829 0 0 1-4.203 2.975c-1.714.252-3.48-.279-5.186.033-3.546.664-5.525 4.602-8.818 6.069a7.032 7.032 0 0 1-6.985-.83c-1.953-1.494-2.444-5.471-2.065-7.895 0 .06 6.64-4.807 27.489-5.252Zm13.453 21.294c.85-.664 2.191-.504 3.273-.312a7.385 7.385 0 0 1 2.948 1.382 4.017 4.017 0 0 1 1.826 2.509c.16 1.222-.664 2.344-1.407 3.32a5.054 5.054 0 0 1-1.043 1.083 1.8 1.8 0 0 1-1.427.338 2.513 2.513 0 0 1-1.262-1.016 22.224 22.224 0 0 1-2.603-4.262c-.451-.957-.817-2.112-.305-3.035" opacity=".3"/>
  <path fill="#263238" d="M239.704 272.306s0-.086.033-.245c.033-.16.08-.385.113-.664.128-.855.159-1.721.093-2.583a11.143 11.143 0 0 0-.976-3.679 18.516 18.516 0 0 0-2.463-3.984 11.684 11.684 0 0 0-3.779-2.716 21.57 21.57 0 0 0-3.612-1.281 34.608 34.608 0 0 0-2.536-.558l-.664-.119a2.291 2.291 0 0 1-.246-.053c1.179.134 2.346.356 3.493.664 1.25.311 2.47.734 3.645 1.261a11.732 11.732 0 0 1 3.825 2.742 18.355 18.355 0 0 1 2.483 4.018c.53 1.177.853 2.437.956 3.725.055.868.008 1.739-.139 2.596-.133.551-.226.876-.226.876Zm33.804-27.064c0 .04-.305.106-.797 0a3.322 3.322 0 0 1-1.713-.877 3.366 3.366 0 0 1-.936-1.673c-.1-.485-.053-.797 0-.797s.086.292.239.731a4 4 0 0 0 .943 1.494c.433.412.956.719 1.527.896.438.146.737.173.737.226Zm2.364 6.593c-.093 0-.186-.086-.206-.219a.224.224 0 0 1 .009-.161.222.222 0 0 1 .117-.111c.1 0 .193.08.213.219.02.139-.033.252-.133.272Zm.976-.305a.207.207 0 0 1-.272-.093.215.215 0 0 1 0-.286.207.207 0 0 1 .272.093c.037.039.058.09.058.143a.208.208 0 0 1-.058.143Zm-.013.684a.164.164 0 0 1-.116.05.156.156 0 0 1-.116-.05.164.164 0 0 1 .232-.233.164.164 0 0 1 .05.117.164.164 0 0 1-.05.116Zm-4.124-3.021c-.053.079-.199.073-.332 0-.132-.073-.192-.226-.139-.306.053-.08.206-.066.332 0 .126.067.193.226.139.306Zm.432-.983c-.093 0-.179-.086-.186-.206a.205.205 0 0 1 .026-.151.2.2 0 0 1 .127-.088c.099 0 .179.086.192.212a.208.208 0 0 1-.033.148.208.208 0 0 1-.126.085Zm.193 1.295c-.1 0-.166-.073-.16-.14.007-.066.093-.099.186-.086.093.013.166.073.16.133-.007.059-.093.099-.186.093Zm17.184 11.759s-2.822-1.773-6.255-4.03c-3.433-2.258-6.195-4.124-6.175-4.157.02-.033 2.822 1.779 6.255 4.037s6.195 4.124 6.175 4.15Zm4.296-2.457h-.173c-.112 0-.278-.046-.484-.093a20.197 20.197 0 0 1-1.76-.438 57.405 57.405 0 0 1-5.591-2.072l-5.518-2.27-1.666-.704-.452-.2-.153-.073c.058.01.114.027.166.054l.459.172 1.686.664 5.531 2.238c2.152.883 4.11 1.66 5.571 2.105.724.226 1.328.385 1.74.478l.478.119.166.02Z"/>
  <path fill="#000" d="M272.24 235.986a4.163 4.163 0 0 0 2.251-1.05 4.02 4.02 0 0 0 1.076-2.118c.138-.791.194-1.594.166-2.397l-2.258 2.145c-.485.458-.963.916-1.401 1.408a2.572 2.572 0 0 0-.544.863.97.97 0 0 0 .172.956.636.636 0 0 0 .452.193.624.624 0 0 0 .451-.193m14.456 13.692a5.458 5.458 0 0 1 5.312-5.312c-1.083 2.244-3.785 3.207-5.312 5.172" opacity=".3"/>
  <path fill="#263238" d="m233.496 174.054-.857.445-1.421 33.419c-.259 6.142-.498 12.404 1.786 18.426l36.766 9.794a19.311 19.311 0 0 0 2.59-8.167 284.257 284.257 0 0 0 1.115-37.117c-.106-3.878.239-12.869-3.32-15.272-6.022-4.044-11.593-2.656-17.682-4.024-6.089-1.368-12.344 1.919-18.592 1.852"/>
  <path fill="#B78876" d="m215.8 213.35-10.836-17.158c-.452 0-31.965 6.321-31.965 6.321s-21.952 1.899-22.49 2.258c-.538.359-7.224 12.735-7.224 12.735 4.422.724 6.228-4.966 6.228-4.966l4.429-2.53 5.418.664c-1.547.704-2.855 1.408-3.254 1.899-1.175 1.441-1.806 4.243-1.082 4.336.724.093 2.039-1.992 5.445-2.444 3.406-.451 12.045-2.257 12.045-2.257l3.101.365 40.185.777Z"/>
  <path fill="#A36957" d="M164.772 208.43a32.386 32.386 0 0 1-3.075 1.328 29.85 29.85 0 0 1-3.081 1.328 11.292 11.292 0 0 1 2.948-1.627 10.98 10.98 0 0 1 3.208-1.029Z"/>
  <path fill="#263238" d="M188.669 109.029c1.062 12.184 1.992 25.159-3.765 35.955a5.192 5.192 0 0 0 3.181-2.078c-.472 4.044-.943 8.141-.279 12.151.664 4.011 2.656 7.968 6.062 10.166.047-.505.1-1.009.146-1.507 1.328 8.592 8.884 15.83 17.53 16.773 3.731.411 8.021-.552 10-3.739 1.507-2.43 1.328-5.504 1.075-8.346l-4.648-55.504c-.431-5.166-.963-10.591-3.917-14.84a14.824 14.824 0 0 0-15.402-6.047 14.819 14.819 0 0 0-11.404 11.989"/>
  <path fill="#FF725E" d="M213.522 144.706s-8.983 5.205-11.726 9.521c-2.742 4.316-1.72 16.421-1.72 16.421a57.111 57.111 0 0 0-1.885 12.935c0 6.992 5.411 12.118 6.792 15.869 1.382 3.752.432 20.89.432 20.89l51.128 1.248v-35.232l6.799.618s2.212-34.395-8.067-38.745c-10.279-4.349-22.643-8.665-22.643-8.665l-19.11 5.14Z"/>
  <path fill="#FAFAFA" d="M263.608 176.883a3.092 3.092 0 0 1-.405.571 5.428 5.428 0 0 1-1.56 1.255 7.532 7.532 0 0 1-3.042.876 10.255 10.255 0 0 1-4.15-.61 28.559 28.559 0 0 1-4.588-2.192 29.817 29.817 0 0 0-5.212-2.483 11.573 11.573 0 0 0-6.255-.212 36.52 36.52 0 0 0-6.414 2.417 34.874 34.874 0 0 1-6.494 2.41 11.598 11.598 0 0 1-6.421-.312 25.268 25.268 0 0 1-5.166-2.716 40.42 40.42 0 0 0-4.343-2.583 11.839 11.839 0 0 0-3.984-1.169 8.43 8.43 0 0 0-3.094.246 6.997 6.997 0 0 0-2.37 1.209c.16-.171.339-.325.531-.459a6.094 6.094 0 0 1 1.799-.876 8.286 8.286 0 0 1 3.154-.312 12.02 12.02 0 0 1 4.037 1.142 38.695 38.695 0 0 1 4.403 2.536 25.634 25.634 0 0 0 5.119 2.656c1.495.501 3.078.684 4.648.538.538-.06 1.076-.153 1.614-.259a34.89 34.89 0 0 0 6.427-2.397 36.393 36.393 0 0 1 6.481-2.423 11.78 11.78 0 0 1 6.421.232 29.514 29.514 0 0 1 5.259 2.537 29.17 29.17 0 0 0 4.528 2.211c1.294.493 2.674.719 4.057.664a7.549 7.549 0 0 0 3.028-.764 5.546 5.546 0 0 0 1.567-1.182c.292-.358.425-.564.425-.551Zm-1.633-12.815a.682.682 0 0 1-.127.119c-.086.067-.205.18-.391.306a5.973 5.973 0 0 1-1.733.803c-1.601.492-4.15.412-6.906-.757-1.374-.577-2.795-1.374-4.336-2.171a17.835 17.835 0 0 0-5.139-1.919 16.593 16.593 0 0 0-6.043.153 39.749 39.749 0 0 0-6.294 1.846c-2.119.776-4.177 1.573-6.235 2.171a22.27 22.27 0 0 1-6.083.996 22.029 22.029 0 0 1-10.039-2.576 41.187 41.187 0 0 1-5.976-3.725 54.97 54.97 0 0 1-1.508-1.176l-.378-.312c-.086-.073-.133-.113-.126-.119.006-.007.053 0 .146.093l.398.285 1.547 1.116a44.727 44.727 0 0 0 5.976 3.618 22.063 22.063 0 0 0 9.927 2.477 22.333 22.333 0 0 0 5.976-1.002c2.032-.591 4.09-1.395 6.209-2.172a40.038 40.038 0 0 1 6.347-1.852 16.8 16.8 0 0 1 6.162-.133 18.027 18.027 0 0 1 5.219 1.992c1.541.81 2.949 1.613 4.303 2.198 2.696 1.182 5.193 1.295 6.766.856a6.837 6.837 0 0 0 2.338-1.115Zm-22.935 33.293a2.712 2.712 0 0 1-.359.186 37.27 37.27 0 0 1-1.042.458 24.83 24.83 0 0 1-3.984 1.328 10.747 10.747 0 0 1-6.208-.193c-2.258-.783-4.343-2.39-6.587-3.858a17.281 17.281 0 0 0-6.946-2.795 18.82 18.82 0 0 0-3.287-.199c-.956.033-1.909.141-2.848.325a16.752 16.752 0 0 0-3.951 1.295c-.896.412-1.361.704-1.381.664.097-.092.207-.171.325-.232.321-.207.654-.396.996-.565a15.251 15.251 0 0 1 3.984-1.414c.954-.203 1.922-.33 2.895-.379 1.11-.035 2.221.025 3.32.18 2.544.4 4.966 1.362 7.092 2.815 2.257 1.487 4.309 3.074 6.5 3.851 1.95.665 4.051.753 6.049.252a28.849 28.849 0 0 0 3.984-1.241l1.063-.399c.124-.045.253-.071.385-.079Zm-.113 12.583c0 .033-.471-.093-1.328-.22a16.644 16.644 0 0 0-3.652-.093 29.61 29.61 0 0 0-5.312.996c-1.992.538-4.117 1.262-6.414 1.893a25.224 25.224 0 0 1-6.64 1.016 13.943 13.943 0 0 1-5.378-1.076 9.642 9.642 0 0 1-3.068-2.058 7.273 7.273 0 0 1-.664-.771 1.737 1.737 0 0 1-.193-.292c.033 0 .312.372.937.963a9.89 9.89 0 0 0 3.074 1.932c1.68.664 3.472.998 5.279.983a25.669 25.669 0 0 0 6.547-1.036c2.284-.617 4.429-1.328 6.427-1.859a28.394 28.394 0 0 1 5.399-.936 15.371 15.371 0 0 1 3.691.206c.33.06.656.14.976.239.112.021.219.059.319.113Z"/>
  <path fill="#263238" d="M238.861 194.333c-.093 0-.173-4.814-.173-10.75s.08-10.75.173-10.75c.093 0 .179 4.814.179 10.75s-.08 10.75-.179 10.75Zm-4.828 6.507a.737.737 0 0 1-.272.04c-.186 0-.451.04-.803.033a14.174 14.174 0 0 1-2.928-.285 16.016 16.016 0 0 1-12.842-13.114 14.368 14.368 0 0 1-.226-2.935c0-.352.04-.618.053-.797 0-.095.016-.189.047-.279.014 1.336.136 2.668.365 3.984a16.282 16.282 0 0 0 12.649 12.921c1.305.25 2.629.394 3.957.432Z"/>
  <path fill="#000" d="M207.042 217.168c7.43-4.422 17.39-3.672 24.077-9.15 3.154-2.583 5.199-6.301 6.427-10.186 1.228-3.884 1.687-7.968 2.145-11.998l1.275 22.523c.086 1.533.119 3.24-.883 4.415-.844.99-2.212 1.328-3.48 1.607l-16.294 3.625c-4.409.977-9.117 1.939-13.334.319" opacity=".3"/>
  <path fill="#000" d="M228.296 161.193c-1.401 1.726-2.822 3.492-3.585 5.584-.764 2.091-.757 4.588.578 6.368 1.454 1.939 4.189 2.576 6.567 2.105 2.377-.472 4.462-1.88 6.347-3.394.943-.756 1.992-1.586 3.181-1.56.706.1 1.403.256 2.085.465 1.959.345 3.898-.93 5.013-2.57 1.116-1.64 1.614-3.605 2.244-5.491.631-1.886 1.494-3.792 3.088-4.98 1.481-1.102 3.546-1.547 4.462-3.147 1.155-1.992-.352-4.688-2.47-5.625-2.118-.936-4.542-.617-6.826-.292m-17.151 51.925c.126.193-.033.591-.564 1.056a5.715 5.715 0 0 1-2.703 1.188 8.747 8.747 0 0 1-4.409-.391 11.201 11.201 0 0 1-4.442-3.015 15.05 15.05 0 0 1-2.756-4.356 19.378 19.378 0 0 1-1.155-3.831c-.392-2.224-.312-3.625.133-3.758s1.235 1.062 2.191 2.981c.956 1.919 2.158 4.509 4.123 6.64a10.933 10.933 0 0 0 3.108 2.41c.962.477 2 .783 3.068.904 1.865.192 3.127-.253 3.406.172Z" opacity=".2"/>
  <path fill="#263238" d="M263.369 186.976c0 .093-5.505-.326-12.271-.943-6.766-.618-12.244-1.189-12.237-1.288.006-.1 5.504.325 12.27.943 6.767.617 12.245 1.188 12.238 1.288Zm-40.584-96.194c3.021 2.656 5.359 4.741 8.559 6.76 3.201 2.018 6.514 4.428 7.703 8.027.863 2.61.544 5.711 2.277 7.849 1.481 1.826 3.984 2.364 6.063 3.466a11.628 11.628 0 0 1 6.022 10.152c0 2.656-.923 5.472.325 7.802 1.089 2.032 3.526 3.028 4.735 4.994 1.208 1.965.982 4.249.604 6.414-.578 3.32-1.806 6.892-4.768 8.486a8.09 8.09 0 0 1-6.64.179 16.02 16.02 0 0 1-5.544-3.911 32.128 32.128 0 0 1-7.065-10.989c-1.886-4.9-2.53-10.179-3.439-15.352a148.922 148.922 0 0 0-7.736-27.775c-.85-2.191-2.364-4.13-1.082-6.102"/>
  <path fill="#263238" d="M247.798 132.355s.179-.119.525-.339c.5-.319.983-.665 1.447-1.035a11.12 11.12 0 0 0 1.946-1.992 7.308 7.308 0 0 0 1.401-3.367 6.03 6.03 0 0 0-1.056-4.203 4.375 4.375 0 0 0-1.886-1.514 8.017 8.017 0 0 0-2.583-.431 5.719 5.719 0 0 1-2.775-.711 4.24 4.24 0 0 1-1.727-2.437 8.156 8.156 0 0 1-.272-3.081c.1-1.042.306-2.071.452-3.114a9.745 9.745 0 0 0 0-3.068 7.007 7.007 0 0 0-1.195-2.695 12.398 12.398 0 0 0-4.336-3.599c-1.601-.87-3.214-1.547-4.648-2.318A41.86 41.86 0 0 1 224 92.057a26.483 26.483 0 0 1-1.274-1.248l-.319-.339c-.073-.08-.106-.12-.1-.126l.12.1.345.318c.299.279.737.664 1.328 1.195a43.99 43.99 0 0 0 5.212 3.984 41.74 41.74 0 0 0 3.918 2.271c1.441.75 3.054 1.415 4.681 2.291a12.831 12.831 0 0 1 4.462 3.679 7.355 7.355 0 0 1 1.255 2.828 9.813 9.813 0 0 1 0 3.181c-.139 1.056-.352 2.078-.445 3.094a7.84 7.84 0 0 0 .253 2.955 3.902 3.902 0 0 0 1.58 2.257c.804.44 1.707.668 2.623.664a8.293 8.293 0 0 1 2.656.472 4.65 4.65 0 0 1 1.992 1.62 6.328 6.328 0 0 1 1.069 4.409 7.563 7.563 0 0 1-1.494 3.453 10.705 10.705 0 0 1-1.992 1.992 11.78 11.78 0 0 1-1.494.989c-.179.106-.319.173-.412.219a.43.43 0 0 1-.166.04Z"/>
  <path fill="#FF725E" d="m184.399 127.72 11.541-6.978a1.004 1.004 0 0 1 1.374.338 1.007 1.007 0 0 1-.338 1.375l-11.541 6.979-1.036-1.714Z"/>
  <path fill="#000" d="m196.976 122.455-1.036-1.713a1.004 1.004 0 0 1 1.374.338 1.007 1.007 0 0 1-.338 1.375Z" opacity=".4"/>
  <path fill="#000" d="m185.115 128.87 11.529-6.972-.289-.477-11.528 6.971.288.478Z" opacity=".4"/>
  <path fill="#FF725E" d="m185.435 129.434-2.941.61 1.905-2.324 1.036 1.714Z"/>
  <path fill="#fff" d="m185.435 129.434-2.941.61 1.905-2.324 1.036 1.714Z" opacity=".5"/>
  <path fill="#263238" d="m183.45 129.845-.332-.558-.624.757.956-.199Z"/>
  <path fill="#B78876" d="M202.653 94.952a16.31 16.31 0 0 0-10.624 19.854c1.806 6.507 3.878 13.545 5.458 17.622 3.685 9.482 11.48 9.104 11.48 9.104s1.461 6.122 2.743 11.952c1.215 5.564 7.051 9.123 13.041 7.968 5.923-1.149 9.787-6.508 8.665-12.039l-9.774-42.628a16.317 16.317 0 0 0-7.884-10.548 16.308 16.308 0 0 0-13.105-1.285Z"/>
  <path fill="#263238" d="M195.814 118.072a1.328 1.328 0 0 0 1.953.849c.141-.084.264-.195.361-.327a1.221 1.221 0 0 0 .229-.927 1.289 1.289 0 0 0-1.488-1.009 1.226 1.226 0 0 0-1.036.926c-.039.16-.046.326-.019.488Zm-.864-1.533c.193.132.996-.777 2.351-1.069 1.355-.293 2.497.172 2.603 0 .06-.087-.166-.346-.664-.571a3.555 3.555 0 0 0-2.132-.186 3.436 3.436 0 0 0-1.826 1.062c-.345.379-.425.711-.332.764Zm14.741-.943a1.291 1.291 0 0 0 1.488 1.009 1.226 1.226 0 0 0 1.036-.926c.039-.16.046-.326.019-.488a1.332 1.332 0 0 0-1.954-.85 1.217 1.217 0 0 0-.57.768 1.229 1.229 0 0 0-.019.487Zm-.491-1.62c.192.132.996-.784 2.35-1.069 1.355-.286 2.497.172 2.603 0 .06-.087-.166-.352-.664-.571a3.499 3.499 0 0 0-2.131-.186 3.39 3.39 0 0 0-1.826 1.055c-.372.385-.425.717-.332.771Zm-2.749 11.115a9.145 9.145 0 0 0-2.284.08c-.352.039-.697.039-.81-.186a1.827 1.827 0 0 1 0-1.076c.146-.903.292-1.859.451-2.855.611-4.057.976-7.364.81-7.39-.166-.027-.79 3.246-1.401 7.304-.139.996-.279 1.952-.405 2.861-.132.464-.092.959.113 1.395a.9.9 0 0 0 .288.268.909.909 0 0 0 .376.117c.203.01.406-.005.604-.047a8.725 8.725 0 0 0 2.258-.471Z"/>
  <path fill="#A36957" d="M208.981 141.332a25.56 25.56 0 0 0 12.397-6.354s-1.733 7.437-11.76 8.632l-.637-2.278Z"/>
  <path fill="#263238" d="M212.566 109.042c-.099.279-1.175.146-2.463.219-1.288.073-2.351.299-2.47 0-.12-.299.903-.989 2.417-1.062 1.514-.073 2.616.584 2.516.843Zm-13.877 1.282c0 .292-1.096.557-2.397.949-1.302.392-2.384.744-2.537.491-.153-.252.79-1.069 2.245-1.487 1.454-.418 2.689-.232 2.689.047Z"/>
  <path fill="#263238" d="M249.365 145.808s-5.312-5.857-4.907-12.576c.405-6.72-1.666-11.076-5.425-12.616-2.656-1.083-3.685-3.798-4.09-6.063a45.33 45.33 0 0 0-3.32-11.029c-2.337-5.046-5.451-10.245-9.787-13.512-5.638-4.25-14.489-7.092-19.92-2.603-2.53 2.085-4.017 2.417-6.275 5.976 0 0-2.716.95-4.117 1.587-4.821 2.191-6.587 8.486-6.075 12.616 1.181 9.502 6.938 10.704 9.189 16.766 0 0-2.702-13.194-2.49-16.826a11.463 11.463 0 0 1 3.373-7.078c3.825-.664 5.85 1.122 8.048 4.329 2.198 3.207 3.632 5.83 7.238 7.304 3.393 1.381 6.414 4.449 11.009 1.195a11.286 11.286 0 0 1 2.742 5.864c.325 3.32-2.921 5.146-.538 10.238 2.384 5.093 6.839 8.546 7.304 10.571"/>
  <path fill="#FF725E" d="M208.948 127.827a2.066 2.066 0 0 1 1.673-1.116c.252-.027.508-.003.751.072.243.074.469.196.663.36a1.188 1.188 0 0 1 .359 1.328 1.403 1.403 0 0 1-1.401.664 4.374 4.374 0 0 1-1.614-.578 1.26 1.26 0 0 1-.392-.266.39.39 0 0 1-.079-.425"/>
  <path fill="#263238" d="M211.404 125.323c-.186 0 .053 1.249-.816 2.331-.87 1.082-2.212 1.202-2.185 1.374.027.173.339.18.896.087a3.08 3.08 0 0 0 1.833-1.083 2.696 2.696 0 0 0 .604-1.938c-.053-.518-.252-.797-.332-.771Zm12.583 3.712a10.51 10.51 0 0 1 2.656 10.166c-.664 2.331-2.158 4.402-2.497 6.799-.418 2.922.93 5.764 2.052 8.493 1.122 2.729 2.065 5.856.87 8.552-.491 1.129-1.328 2.085-1.839 3.207-.511 1.122-.618 2.59.239 3.473a3.68 3.68 0 0 0 2.364.87 16.062 16.062 0 0 0 15.584-9.037l1.328 2.888a22.924 22.924 0 0 0-2.689-28.651"/>
  <path fill="#B78876" d="M220.063 115.284c-.146-.664 1.188-2.291 1.833-2.464 1.487-.385 4.076-.352 5.258 3.732 1.694 5.836-4.335 5.67-4.395 5.504-.06-.166-2.185-4.475-2.696-6.772Z"/>
  <path fill="#A36957" d="M223.529 119.434s.119.046.319.073c.271.033.545-.041.763-.206.551-.405.784-1.534.512-2.59a3.434 3.434 0 0 0-.691-1.374 1.23 1.23 0 0 0-.989-.565.554.554 0 0 0-.518.452c-.033.192.04.292 0 .312-.04.02-.153-.06-.18-.312a.669.669 0 0 1 .127-.432.789.789 0 0 1 .518-.312c.254-.022.509.021.742.125a1.5 1.5 0 0 1 .586.473c.393.432.674.954.816 1.52.306 1.189 0 2.464-.75 2.955a1.138 1.138 0 0 1-.976.113c-.226-.093-.299-.212-.279-.232Z"/>
  <path fill="#455A64" d="M251.47 131.977c-.073 0 0-.279 0-.751a4.714 4.714 0 0 0-.372-1.992 6.333 6.333 0 0 0-1.919-2.49 13.444 13.444 0 0 0-3.851-1.919 28.158 28.158 0 0 1-5.153-2.131 8.3 8.3 0 0 1-2.47-2.198 11.258 11.258 0 0 1-1.52-3.081c-.372-1.069-.664-2.151-1.083-3.161a6.707 6.707 0 0 0-1.706-2.596c-1.547-1.374-3.984-1.673-6.394-1.487-2.411.186-4.94.797-7.523.591-1.281-.1-2.531-.44-3.686-1.003a13.604 13.604 0 0 1-2.961-1.992 38.61 38.61 0 0 1-4.283-4.727 25.882 25.882 0 0 0-3.652-3.852 8.897 8.897 0 0 0-6.919-2.244 6.014 6.014 0 0 0-1.952.617c-.432.213-.664.346-.697.3-.033-.047.113-.266.505-.592a5.118 5.118 0 0 1 1.992-.989 8.03 8.03 0 0 1 3.545-.053 10.44 10.44 0 0 1 4.263 1.992 25.536 25.536 0 0 1 3.984 3.891 40.663 40.663 0 0 0 4.223 4.442 9.77 9.77 0 0 0 5.744 2.543c2.231.166 4.648-.398 7.257-.624a14.307 14.307 0 0 1 3.984.193 7.734 7.734 0 0 1 3.666 1.746 8.353 8.353 0 0 1 2.118 3.254c.438 1.142.724 2.244 1.056 3.26.279.96.7 1.873 1.248 2.709a6.937 6.937 0 0 0 1.992 1.866 28.944 28.944 0 0 0 4.834 2.204 13.474 13.474 0 0 1 4.03 2.324 6.642 6.642 0 0 1 1.939 3.008 4.25 4.25 0 0 1 .08 2.251c-.133.491-.279.711-.319.691Z"/>
  <path fill="#263238" d="M216.683 88.053a6.318 6.318 0 0 1-1.959-4.528 5.118 5.118 0 0 1 2.331-4.263 5.23 5.23 0 0 1 3.28-.664 5.977 5.977 0 1 1-5.053 9.96"/>
  <path fill="#FF725E" d="M222.487 89.673a3.103 3.103 0 0 1-1.222.08 7.962 7.962 0 0 1-5.272-2.484 2.913 2.913 0 0 1-.711-.996 10.32 10.32 0 0 0 7.205 3.4Z"/>
  <path fill="#455A64" d="M191.624 120.782c-.009-.355.007-.71.046-1.063a11.717 11.717 0 0 0-.405-2.855 29.658 29.658 0 0 0-1.54-4.024 27.852 27.852 0 0 1-1.813-5.006 10.159 10.159 0 0 1-.239-2.776 7.433 7.433 0 0 1 .617-2.523 8.577 8.577 0 0 1 2.69-3.42 7.962 7.962 0 0 1 2.656-1.328c.256-.076.518-.13.783-.16.186-.026.279-.026.279 0 0 .04-.372.087-1.022.306a8.48 8.48 0 0 0-5.067 4.728 7.216 7.216 0 0 0-.571 2.424 9.765 9.765 0 0 0 .239 2.656 28.569 28.569 0 0 0 1.78 4.953 26.78 26.78 0 0 1 1.474 4.084c.238.954.34 1.938.305 2.921-.033.346-.086.618-.113.797-.026.179-.086.292-.099.286Zm6.128 47.429a2.959 2.959 0 0 1-.391-.232 9.675 9.675 0 0 1-1.056-.764 13.715 13.715 0 0 1-3.041-3.665 19.047 19.047 0 0 1-2.271-6.7 31.16 31.16 0 0 1 .106-8.632c.419-3.054 1.043-5.91 1.534-8.519.463-2.303.794-4.631.989-6.972a30.662 30.662 0 0 0 0-4.734c-.093-1.123-.205-1.733-.166-1.74.045.145.079.294.1.445.066.285.126.717.199 1.281.174 1.583.21 3.179.106 4.768a58.473 58.473 0 0 1-.923 7.012c-.478 2.616-1.088 5.471-1.5 8.506a31.62 31.62 0 0 0-.14 8.565 19.11 19.11 0 0 0 2.172 6.64 14.235 14.235 0 0 0 2.921 3.692c.817.691 1.381 1.009 1.361 1.049Zm29.608-1.388s0-.046.12-.119l.378-.319c.339-.279.83-.664 1.448-1.235a31.059 31.059 0 0 0 4.701-5.133 19.027 19.027 0 0 0 3.645-9.495 14.333 14.333 0 0 0-.717-5.976c-.664-1.992-2.025-3.758-3.141-5.73a11.495 11.495 0 0 1-1.281-3.121 12.403 12.403 0 0 1-.259-3.267c.086-2.145.471-4.163.511-6.102a18.83 18.83 0 0 0-.611-5.445 12.985 12.985 0 0 0-2.038-4.303 10.523 10.523 0 0 0-5.551-3.93 10.97 10.97 0 0 0-2.523-.346h.664a8.88 8.88 0 0 1 1.892.253 10.553 10.553 0 0 1 5.717 3.917 13.401 13.401 0 0 1 2.118 4.369c.492 1.801.716 3.665.664 5.532 0 1.992-.411 3.983-.491 6.108a11.955 11.955 0 0 0 .252 3.174 11.21 11.21 0 0 0 1.249 3.035c1.095 1.939 2.476 3.725 3.16 5.783a14.61 14.61 0 0 1 .717 6.109 19.04 19.04 0 0 1-3.771 9.615 29.55 29.55 0 0 1-4.808 5.093c-.664.531-1.135.923-1.487 1.181l-.405.293a.913.913 0 0 1-.153.059Z"/>
  <path fill="#FF725E" d="M227.453 120.317s.213.106.511.398c.436.415.747.944.897 1.527a2.925 2.925 0 0 1-.664 2.53 3.323 3.323 0 0 1-2.955 1.209 3.183 3.183 0 0 1-2.483-1.992 2.65 2.65 0 0 1-.126-1.435c.079-.414.249-.807.498-1.148a2.737 2.737 0 0 1 1.427-1.049c.211-.084.44-.109.664-.073 0 .033-.226.053-.597.199a2.796 2.796 0 0 0-1.275 1.062 2.517 2.517 0 0 0-.273 2.331 2.92 2.92 0 0 0 2.231 1.779 3.032 3.032 0 0 0 2.656-1.075 2.704 2.704 0 0 0 .664-2.271 3.387 3.387 0 0 0-.757-1.494 4.516 4.516 0 0 1-.418-.498Z"/>
  <path fill="#455A64" d="M224.173 92.96c-.005.101-.02.201-.046.299 0 .113-.054.232-.087.365l-.159.485a7.716 7.716 0 0 1-1.76 2.716 8.285 8.285 0 0 1-4.183 2.31 7.796 7.796 0 0 1-2.862.053 12.607 12.607 0 0 1-2.921-.91c-1.919-.85-3.579-1.945-5.18-2.728a11.953 11.953 0 0 0-4.475-1.395 7.014 7.014 0 0 0-3.121.425c-.664.286-1.029.545-1.049.518.068-.077.146-.144.233-.2.241-.17.496-.318.763-.444a6.915 6.915 0 0 1 3.187-.544c1.608.126 3.174.578 4.602 1.328 1.633.783 3.32 1.865 5.179 2.695.905.428 1.86.743 2.842.937a7.44 7.44 0 0 0 2.742 0 8.172 8.172 0 0 0 4.077-2.172 8.04 8.04 0 0 0 1.806-2.596l.193-.465.113-.345c.053-.22.093-.332.106-.332Z"/>
  <path fill="#263238" d="m211.086 237.898-41.673 20.139-76.393-20.83 37.502-20.491 80.564 21.182Z"/>
  <path fill="#455A64" d="m165.137 237.048 11.062 3.652 10.246-5.564-17.052-5.472-9.953 5.16 5.697 2.224Z"/>
  <path fill="#263238" d="M83.299 180.953c.345 1.388 9.72 56.254 9.72 56.254l76.361 20.83-10.02-58.684-76.061-18.4Z"/>
  <path fill="#455A64" d="M163.855 225.641c.093 0 1.415 7.224 2.948 16.168 1.534 8.944 2.703 16.215 2.61 16.228-.093.013-1.414-7.218-2.948-16.168-1.534-8.951-2.703-16.215-2.61-16.228Zm-39.934-4.568c2.065-.8 2.986-3.395 2.056-5.795-.929-2.401-3.357-3.698-5.423-2.899-2.065.8-2.986 3.395-2.056 5.796.929 2.4 3.357 3.698 5.423 2.898Z"/>
  <path fill="#B78876" d="M201.796 229.777s44.734 3.831 52.138-1.534c7.403-5.365 7.41-41.38 7.41-41.38l-22.165-2.045-.318 25.033c-1.527 1.274-40.099 7.662-43.419 7.41 0 0-20.219 2.158-21.321 2.158-1.103 0-8.42 8.333-8.42 8.718a2.156 2.156 0 0 0 .804 1.501 1.675 1.675 0 0 0 .099 2.204s-.299 1.408.804 1.707c1.102.299 1.202.803 2.503 0 1.301-.804 7.716-5.797 7.716-5.797l4.814-.405s-11.727 6.713-10.724 8.22c1.003 1.508 3.32-.199 5.91-1.607 2.589-1.407 6.919-3.904 7.715-4.11.797-.206 16.454-.073 16.454-.073Z"/>
  <path fill="#A36957" d="M180.608 223.469c0 .067-.93.06-2.364.432a15.943 15.943 0 0 0-5.166 2.523 36.916 36.916 0 0 0-4.342 3.851c-.542.6-1.124 1.163-1.74 1.687.111-.189.243-.365.392-.525a48.72 48.72 0 0 1 1.168-1.328 29.353 29.353 0 0 1 4.323-3.984 14.695 14.695 0 0 1 5.312-2.483 9.456 9.456 0 0 1 1.773-.226c.216-.017.434.001.644.053Zm-2.517-1.64c0 .067-.803.053-2.038.392a13.06 13.06 0 0 0-4.422 2.251 29.226 29.226 0 0 0-3.659 3.446c-.451.534-.94 1.035-1.461 1.501a11.38 11.38 0 0 1 1.282-1.667 23.736 23.736 0 0 1 3.625-3.552 11.949 11.949 0 0 1 4.575-2.218 7.472 7.472 0 0 1 1.534-.193c.189-.02.38-.007.564.04Z"/>
  <path fill="#AA6550" d="M245.893 217.453c-.06 0-.206-.591-.605-1.494a11.25 11.25 0 0 0-5.212-5.464c-.883-.439-1.481-.618-1.461-.664a4.572 4.572 0 0 1 1.567.458 10.03 10.03 0 0 1 5.312 5.591 4.56 4.56 0 0 1 .399 1.573Z"/>
  <path fill="#E0E0E0" d="M169.028 264.451c-1.946.478-2.816 2.988-2.165 4.881.651 1.892 2.371 3.207 4.11 4.19 5.253 2.954 12.225 3.652 17.105.119 2.138-1.54 3.811-4.276 2.928-6.759-.77-2.172-3.154-3.32-5.378-3.905a27.227 27.227 0 0 0-18.048 1.408"/>
  <path fill="#455A64" d="M166.166 248.741s-3.599 23.904 13.121 23.16c15.67-.717 10.179-24.01 10.179-24.01l-23.3.85Z"/>
  <path fill="#455A64" d="M186.836 265.268a9.751 9.751 0 0 0 9.004.903 9.379 9.379 0 0 0 5.591-7.078 9.05 9.05 0 0 0-3.287-8.367 8.73 8.73 0 0 0-8.897-1.016l-.239 2.73a5.45 5.45 0 0 1 5.551.63 5.647 5.647 0 0 1 1.719 2.341c.36.916.475 1.911.332 2.885a5.884 5.884 0 0 1-3.492 4.422 6.122 6.122 0 0 1-5.618-.564l-.664 3.114Z"/>
  <path fill="#FF725E" d="M189.466 247.891c.066 1.481-5.1 2.922-11.541 3.221-6.44.298-11.726-.664-11.792-2.145-.067-1.481 5.099-2.928 11.54-3.227 6.441-.299 11.726.664 11.793 2.151Z"/>
  <path fill="#000" d="M190.163 252.081a3.826 3.826 0 0 0-2.503 3.247 8.128 8.128 0 0 0 .982 4.196c.193.399.525.857.963.777.438-.079.571-.604.618-1.029.34-2.351.317-4.74-.067-7.085" opacity=".2"/>
  <path fill="#263238" d="M185.92 250.023c5.425-1.448-11.288-.85-16.68.664-.02-.007 8.858 1.421 16.68-.664Z"/>
</svg>
